<?xml version="1.0" standalone="no"?>
<!DOCTYPE svg PUBLIC "-//W3C//DTD SVG 1.1//EN" "http://www.w3.org/Graphics/SVG/1.1/DTD/svg11.dtd" >
<svg xmlns="http://www.w3.org/2000/svg" xmlns:xlink="http://www.w3.org/1999/xlink" version="1.1">
<metadata>
Created by FontForge 20190801 at Tue Nov 24 12:49:44 1992
 By Jimmy Wärting
Copyright c1992 Image Club Graphics, Inc.
</metadata>
<defs>
<font id="CenturyCondBook" horiz-adv-x="921" >
  <font-face 
    font-family="Century"
    font-weight="5"
    font-stretch="normal"
    units-per-em="1955"
    panose-1="0 0 0 0 0 0 0 0 0 0"
    ascent="1564"
    descent="-391"
    x-height="1066"
    cap-height="1540"
    bbox="-184 -541 1941 2016"
    underline-thickness="20"
    underline-position="-148"
    unicode-range="U+0020-25CA"
  />
<missing-glyph horiz-adv-x="1540" 
d="M96 0v1540h1348v-1540h-1348zM1348 96v1348h-1156v-1348h1156z" />
    <glyph glyph-name=".notdef" horiz-adv-x="1540" 
d="M96 0v1540h1348v-1540h-1348zM1348 96v1348h-1156v-1348h1156z" />
    <glyph glyph-name=".null" unicode="&#xd7;" horiz-adv-x="0" 
 />
    <glyph glyph-name=".null" unicode="&#x141;" horiz-adv-x="0" 
 />
    <glyph glyph-name=".null" unicode="&#xfd;" horiz-adv-x="0" 
 />
    <glyph glyph-name="nonmarkingreturn" horiz-adv-x="404" 
 />
    <glyph glyph-name="space" unicode=" " horiz-adv-x="404" 
 />
    <glyph glyph-name="exclam" unicode="!" horiz-adv-x="366" 
d="M303 1379l-85 -966h-68l-78 972q0 63 24 105q30 52 88 52q64 0 95 -54q24 -42 24 -109zM303 128q0 -63 -24 -100q-30 -46 -93 -46q-57 0 -88 49q-26 42 -26 104q0 53 32 94.5t80 41.5q58 0 90 -44q29 -40 29 -99z" />
    <glyph glyph-name="quotedbl" unicode="&#x22;" horiz-adv-x="729" 
d="M639 1296l-31 -285q-10 -75 -19 -103q-16 -54 -46 -54q-26 0 -46 54q-15 42 -22 103l-35 280q-5 43 -7 69.5t-2 44.5q0 74 20 111q26 49 87 49q62 0 90 -49q22 -39 22 -108q0 -25 -4.5 -61t-6.5 -51zM310 1300l-32 -285q-10 -73 -19 -102q-17 -54 -46 -54q-26 0 -43.5 48
t-23.5 108l-36 281q-4 37 -6.5 61t-2.5 51q0 73 21 112q26 49 87 49q62 0 90 -49q22 -39 22 -108q0 -24 -4.5 -60.5t-6.5 -51.5z" />
    <glyph glyph-name="numbersign" unicode="#" horiz-adv-x="976" 
d="M976 1062l-16 -137h-217l-35 -288h217l-18 -138h-219l-39 -323h-86l39 323h-297l-39 -323h-86l39 323h-219l18 138h217l35 288h-217l15 137h219l41 326h88l-41 -326h296l41 326h88l-43 -326h219zM655 925h-299l-35 -288h299z" />
    <glyph glyph-name="dollar" unicode="$" horiz-adv-x="870" 
d="M809 511q0 -160 -88 -280q-91 -124 -243 -157v-164h-70v155q-37 0 -94 17q-104 31 -168 98q-90 94 -90 246q0 75 29.5 121.5t80.5 46.5q42 0 72.5 -39t30.5 -86q0 -73 -35 -106q-31 -29 -88 -29q15 -87 92 -143q37 -28 74.5 -37.5t91.5 -9.5v567q-55 14 -110 48
q-77 47 -123 117q-59 90 -59 207q0 160 95 269q78 89 194 121v204h72v-195q110 0 190 -66q86 -71 86 -201q0 -50 -25 -90q-28 -45 -72 -45q-41 0 -69.5 34.5t-28.5 78.5q0 76 50 103q16 9 51 13q-18 60 -72 90q-15 9 -39.5 12.5t-49.5 3.5q-19 -1 -21 -1v-513q20 0 87 -31
q98 -45 161 -118q88 -102 88 -241zM404 933v472q-80 -26 -124 -94t-44 -159q0 -77 46.5 -135.5t121.5 -83.5zM673 415q0 92 -53 161t-142 92v-511q89 24 142 94.5t53 163.5z" />
    <glyph glyph-name="percent" unicode="%" horiz-adv-x="1246" 
d="M630 1201q0 -142 -75 -249q-81 -116 -205 -116q-127 0 -209 114q-76 105 -76 247q0 138 83 248q87 115 202 115q116 0 200 -114q80 -109 80 -245zM1184 1542l-1013 -1544h-88l1020 1544h81zM1157 339q0 -142 -75 -249q-82 -117 -205 -117q-127 0 -209 114
q-76 106 -76 247q0 138 83 248q87 115 202 115q117 0 200 -113q80 -108 80 -245zM482 1197q0 131 -22 206q-32 110 -110 110q-77 0 -113 -112q-28 -86 -28 -215q0 -122 27 -200q37 -105 114 -105q61 0 94 65q38 76 38 251zM1009 334q0 131 -22 206q-32 110 -110 110
q-77 0 -114 -112q-28 -86 -28 -215q0 -122 27 -200q37 -105 115 -105t110 109q22 75 22 207z" />
    <glyph glyph-name="ampersand" unicode="&#x26;" horiz-adv-x="1399" 
d="M1334 386q1 -8 2.5 -24t1.5 -39q0 -75 -17 -137q-24 -87 -78 -137q-68 -63 -180 -63q-70 0 -153 61q-27 20 -69 61q-74 -70 -148 -100.5t-175 -30.5q-185 0 -318 117q-139 123 -139 307q0 134 90 246q64 79 167 140q76 45 90 45q-2 0 -29 66q-30 73 -53 154
q-30 105 -30 170q0 143 103 246t249 103q150 0 232 -97q68 -80 68 -190q0 -117 -86 -224q-63 -79 -160 -141q-76 -49 -90 -49q22 -54 55 -120q29 -59 60.5 -120t58.5 -107q17 -28 62 -98q35 -54 69 -104q32 56 48 93q48 112 48 207q0 103 -63 147q-40 28 -101 28
q-10 0 -18 -1q-2 0 -6 -1v69h489v-72q-38 0 -77.5 -9t-59.5 -26q-39 -35 -70.5 -151t-49.5 -170.5t-57 -122.5q-12 -22 -34 -56q31 -46 51 -68q61 -68 112 -68q7 1 10 1q77 12 108 100q20 56 20 136v21q0 3 -1 8h68zM805 1287q0 112 -43 167t-125 55q-73 0 -118.5 -63.5
t-45.5 -145.5q0 -63 28 -157q20 -67 53 -146q27 -64 29 -64q9 0 57 38q65 52 107 118q58 92 58 198zM787 164q-64 88 -95 134q-41 62 -87 142q-51 88 -89 162q-43 82 -79 167q-27 -22 -46 -43q-47 -51 -79 -115q-43 -87 -43 -176q0 -153 88.5 -261.5t225.5 -108.5
q64 0 111.5 24t92.5 75z" />
    <glyph glyph-name="quotesingle" unicode="'" horiz-adv-x="408" 
d="M310 1300l-32 -285q-10 -73 -19 -102q-17 -54 -46 -54q-26 0 -43.5 48t-23.5 108l-36 281q-4 37 -6.5 61t-2.5 51q0 73 21 112q26 49 87 49q62 0 90 -49q22 -39 22 -108q0 -24 -4.5 -60.5t-6.5 -51.5z" />
    <glyph glyph-name="parenleft" unicode="(" horiz-adv-x="773" 
d="M717 -372q-54 0 -167 61q-190 103 -310 311q-168 292 -168 749q0 463 163 749q117 205 305 303q109 57 164 57v-85q-61 -14 -105 -38q-60 -33 -112 -90q-100 -109 -158 -302q-45 -149 -62 -338q-11 -120 -11 -245q0 -277 40 -473q34 -168 99 -286q49 -90 123 -158
q80 -73 153 -105q37 -14 46 -18v-92z" />
    <glyph glyph-name="parenright" unicode=")" horiz-adv-x="769" 
d="M702 738q0 -463 -163 -750q-117 -206 -305 -304q-107 -56 -164 -56v85q61 14 105 38q60 33 112 90q100 109 158 302q45 149 62 338q11 120 11 245q0 277 -40 473q-34 168 -99 286q-49 90 -123 158q-68 63 -129 94q-15 8 -71 29v92q54 0 167 -61q191 -103 311 -311
q168 -291 168 -748z" />
    <glyph glyph-name="asterisk" unicode="*" horiz-adv-x="717" 
d="M668 1305l-253 -135l242 -119l-70 -127l-197 181l34 -314h-137l27 314l-184 -186l-78 119l244 125l-237 115l73 127l186 -183l-29 320h137l-31 -311l190 188z" />
    <glyph glyph-name="plus" unicode="+" horiz-adv-x="1237" 
d="M1161 482h-477v-482h-119v484h-473v119h471v477h119v-477h479v-121z" />
    <glyph glyph-name="comma" unicode="," horiz-adv-x="381" 
d="M310 83q0 -112 -42 -232q-30 -85 -82 -173q-39 -66 -49 -70l-65 31q21 31 41 69q4 8 55 119q16 33 27.5 74.5t11.5 76.5v9q0 1 -1 4q-24 -11 -49 -11q-45 0 -68.5 46t-23.5 102q0 60 25 101q30 49 85 49q56 0 95.5 -58.5t39.5 -136.5z" />
    <glyph glyph-name="hyphen" unicode="-" horiz-adv-x="534" 
d="M473 657h-401v139h401v-139z" />
    <glyph glyph-name="period" unicode="." horiz-adv-x="363" 
d="M296 121q0 -63 -24 -100q-30 -46 -92 -46q-57 0 -88 49q-27 43 -27 104q0 53 32 95t80 42q58 0 90 -45q29 -41 29 -99z" />
    <glyph glyph-name="slash" unicode="/" 
d="M861 1614l-695 -1699h-99l704 1699h90z" />
    <glyph glyph-name="zero" unicode="0" horiz-adv-x="991" 
d="M921 778q0 -191 -44 -362q-50 -195 -140 -307q-104 -129 -246 -129q-206 0 -326 264q-104 230 -104 547q0 289 106 510q121 252 320 252q201 0 325 -259q109 -227 109 -516zM722 735q0 200 -13 328q-19 190 -66 294q-57 127 -156 127q-100 0 -153 -119q-42 -93 -57 -277
q-10 -121 -10 -310q0 -222 8 -323q15 -186 60 -287q56 -125 161 -125q100 0 155 116q44 92 60 271q11 119 11 305z" />
    <glyph glyph-name="one" unicode="1" horiz-adv-x="791" 
d="M729 0h-662v79q4 -2 40 -2q47 0 90 7t63 26q26 24 35.5 53t9.5 70v1016q0 37 -4 50q-7 23 -32 41q-16 12 -59.5 16.5t-79.5 4.5h-14h-6v69q64 0 109 8t99 32q44 18 74.5 40t64.5 59h41v-1320q0 -48 13 -82.5t45 -60.5q20 -17 53.5 -23t73.5 -6q17 0 27.5 0.5t18.5 1.5
v-79z" />
    <glyph glyph-name="two" unicode="2" 
d="M868 507l-23 -509h-780v123q56 108 81 155q43 80 91.5 152t187.5 236q117 138 162 220q68 123 68 252q0 146 -49 234q-61 109 -189 109q-95 0 -177.5 -80.5t-82.5 -182.5q0 -6 1 -14t1 -12q14 12 30.5 20.5t34.5 8.5q46 0 74 -47q25 -42 25 -96q0 -57 -28 -99
q-31 -47 -82 -47q-65 0 -101 69q-31 59 -31 142q0 173 95 287q104 125 284 125q173 0 287 -113q118 -117 118 -308q0 -135 -73 -246q-51 -77 -175 -185q-172 -149 -207 -185q-79 -80 -142 -170q-45 -64 -77 -126q-12 -25 -23 -49h390q61 0 112.5 28.5t83 75t44.5 144.5
q4 32 7 88h63z" />
    <glyph glyph-name="three" unicode="3" horiz-adv-x="942" 
d="M881 448q0 -190 -129 -327q-135 -144 -339 -144q-173 0 -269 112q-88 102 -88 261q0 79 26 134q33 70 98 70q48 0 80 -43t32 -96q0 -54 -24 -97q-28 -49 -73 -49q-38 0 -67 16q7 -31 14 -61q24 -69 74 -113q69 -61 179 -61q164 0 235 126q52 93 52 255q0 133 -45 228
q-54 114 -155 114q-6 0 -69 -15q-30 -7 -50 -7h-13q-30 0 -44 6q-21 9 -21 34q0 23 26.5 30.5t63.5 7.5q16 0 44 -3t45 -3q93 9 148 111q49 91 49 211q0 154 -65 244t-183 90q-97 0 -168 -64t-81 -162q23 13 51 13q43 0 69 -41t26 -91q0 -60 -29 -102q-32 -46 -81 -46
q-60 0 -92 64q-27 54 -27 131q0 152 107 262t258 110q157 0 278 -108q126 -112 126 -268q0 -134 -78 -235t-207 -135q13 0 82 -38q93 -51 152 -118q82 -93 82 -203z" />
    <glyph glyph-name="four" unicode="4" horiz-adv-x="1031" 
d="M968 395h-204v-233q0 -25 15.5 -47t36.5 -30q20 -6 62 -9.5t50 -1.5v-74h-551v74h6q8 -1 17 -1q33 0 64 5t49 19q25 17 40.5 38.5t15.5 48.5v211h-499v103l571 1053h123v-1051h204v-105zM569 500v775l-414 -775h414z" />
    <glyph glyph-name="five" unicode="5" horiz-adv-x="948" 
d="M883 496q0 -209 -133 -361q-138 -158 -337 -158q-164 0 -259 110q-87 101 -87 256q0 81 26 135q33 69 98 69q54 0 85 -43q27 -38 27 -94q0 -53 -26 -92q-29 -44 -75 -44q-36 0 -65 20q0 -98 67.5 -174.5t190.5 -76.5q161 0 232 140q55 109 55 301q0 174 -54 285
q-68 141 -211 141q-89 0 -156.5 -56.5t-80.5 -140.5q-2 -22 -3 -44q-5 -23 -33 -26q-14 0 -24 16t-10 32t5.5 40.5t5.5 35.5l54 793q92 -36 170.5 -48t192.5 -12q130 0 195 20q12 4 79 38q5 2 9 -1q8 -7 6 -17q-29 -118 -128 -183q-93 -61 -219 -61q-66 0 -159 19
q-67 14 -97 25l-27 -468q62 62 121 89q64 30 146 30q192 0 310 -153q109 -141 109 -342z" />
    <glyph glyph-name="six" unicode="6" horiz-adv-x="955" 
d="M894 502q0 -201 -104 -355q-113 -167 -283 -167q-152 0 -258 114q-92 100 -140 274q-42 154 -42 331q0 207 46 385q53 205 154 323q115 135 280 135q110 0 186 -73t76 -180q0 -60 -27 -106q-31 -53 -83 -53q-47 0 -76 41.5t-29 94.5q0 47 22.5 85.5t62.5 38.5
q10 0 19 -2.5t15 -4.5q-13 32 -14 34q-41 67 -143 67q-116 0 -186 -116q-56 -92 -80 -254q-17 -113 -17 -250q0 -49 0.5 -68.5t2.5 -35.5q17 68 109 146q73 62 151 62q152 0 257 -143q101 -138 101 -323zM693 469q0 117 -10 191q-14 107 -50 167q-43 72 -117 72
q-107 0 -178 -145q-64 -131 -64 -290q0 -167 47 -280q60 -144 179 -144q12 0 18 1q73 0 115 71q34 57 49 167q11 81 11 190z" />
    <glyph glyph-name="seven" unicode="7" horiz-adv-x="946" 
d="M877 1419q-83 -138 -98 -166q-111 -205 -180 -406q-97 -283 -97 -520q0 -43 9 -140q5 -54 5 -88q0 -47 -17 -80q-22 -42 -65 -42q-71 0 -105 69q-28 57 -28 149q0 191 120 488q84 209 225 461q114 205 121 205l-11 14h-352q-64 0 -111 -18t-87 -65q-47 -56 -69 -182
q-7 -42 -13 -116h-61l22 547h792v-110z" />
    <glyph glyph-name="eight" unicode="8" horiz-adv-x="966" 
d="M903 428q0 -186 -112 -313q-119 -135 -313 -135q-170 0 -289 103q-126 109 -126 278q0 115 74 218q54 75 139 136q66 47 78 47q-10 0 -63 39q-74 54 -119 123q-64 97 -64 212q0 168 107 287q112 124 278 124q161 0 266 -101q102 -98 102 -242q0 -106 -56 -198
q-41 -68 -106 -122q-49 -41 -60 -41l-2 -20q124 -52 195 -159.5t71 -235.5zM726 1181q0 125 -57 210q-65 97 -182 97q-105 0 -172.5 -75.5t-67.5 -179.5q0 -105 62 -188q41 -55 79 -74l175 -99q83 49 123 127.5t40 181.5zM747 341q0 121 -86 219q-61 70 -160 122
q-72 38 -86 38q-9 0 -56 -36q-64 -49 -105 -114q-57 -90 -57 -195q0 -137 66 -227q75 -103 210 -103q131 0 206 92q68 83 68 204z" />
    <glyph glyph-name="nine" unicode="9" horiz-adv-x="946" 
d="M885 800q0 -206 -45 -378q-53 -201 -156 -314q-119 -131 -296 -131q-149 0 -236 104q-76 91 -76 213q0 62 31 114q36 61 93 61q50 0 80 -45q27 -41 27 -99q0 -49 -25 -87q-28 -43 -71 -43q-19 0 -27.5 1.5t-21.5 7.5q19 -67 69 -110q57 -49 139 -49q127 0 204 106
q61 84 88 235q20 111 20 238q0 49 -1 73t-4 43q-18 -74 -95 -140q-70 -60 -156 -60q-153 0 -260 137.5t-107 320.5q0 217 99 376q112 179 297 179q217 0 333 -248q97 -207 97 -505zM670 1038q0 182 -42 300q-55 155 -175 155q-81 0 -129 -78q-40 -65 -56 -182
q-12 -87 -12 -209q0 -106 11 -181q15 -103 50 -156q43 -66 118 -66q109 0 174 124q61 117 61 293z" />
    <glyph glyph-name="colon" unicode=":" horiz-adv-x="350" 
d="M289 841q0 -63 -24 -100q-30 -46 -92 -46q-57 0 -88 49q-26 42 -26 103q0 54 31 95.5t81 41.5q58 0 90 -45q28 -39 28 -98zM296 121q0 -63 -24 -100q-30 -46 -92 -46q-57 0 -88 49q-27 43 -27 104q0 53 32 95t80 42q58 0 90 -45q29 -41 29 -99z" />
    <glyph glyph-name="semicolon" unicode=";" horiz-adv-x="390" 
d="M294 838q0 -62 -24 -99q-30 -46 -93 -46q-57 0 -88 49q-26 42 -26 103q0 53 32 95t80 42q58 0 90 -45q29 -41 29 -99zM316 54q0 -109 -50 -245q-38 -105 -94 -201q-46 -80 -57 -86l-63 43q43 49 73.5 113.5t60.5 128.5q17 34 23.5 65.5t6.5 57.5q0 19 -2 29.5t-3 17.5
l-34 -2q-52 0 -78.5 35.5t-26.5 99.5q0 61 27 102q31 48 87 48q59 0 96 -65q34 -60 34 -141z" />
    <glyph glyph-name="less" unicode="&#x3c;" horiz-adv-x="1064" 
d="M966 39l-880 385v129l880 385v-127l-739 -322l739 -323v-127z" />
    <glyph glyph-name="equal" unicode="=" horiz-adv-x="1087" 
d="M997 596h-880v118h880v-118zM997 264h-880v117h880v-117z" />
    <glyph glyph-name="greater" unicode="&#x3e;" horiz-adv-x="1071" 
d="M974 424l-880 -385v127l739 323l-739 322v127l880 -385v-129z" />
    <glyph glyph-name="question" unicode="?" horiz-adv-x="834" 
d="M762 1206q0 -109 -67 -207q-34 -50 -137 -155q-89 -91 -114 -151q-17 -41 -24 -90.5t-7 -95.5q0 -19 0.5 -34.5t1.5 -24.5h-70v5v17q0 98 8.5 161t27.5 107q26 61 83 128t77 112q35 78 35 201q0 124 -43 200q-54 96 -167 96q-89 0 -152.5 -62.5t-63.5 -150.5q13 3 24 5
t23 2q46 0 75 -45q26 -40 26 -94q0 -52 -28 -90q-31 -42 -79 -42q-63 0 -93.5 53.5t-30.5 141.5q0 147 85 245q91 106 243 106q162 0 264.5 -94.5t102.5 -243.5zM513 126q0 -63 -24 -100q-30 -46 -92 -46q-57 0 -88 49q-26 42 -26 103q0 54 31 95.5t81 41.5q58 0 90 -45
q28 -39 28 -98z" />
    <glyph glyph-name="at" unicode="@" horiz-adv-x="1525" 
d="M1470 852q0 -218 -138 -388q-142 -175 -331 -175q-81 0 -121 80q-13 26 -24 81l-59 -67q-39 -45 -82.5 -65.5t-104.5 -20.5q-115 0 -192 95q-72 89 -72 212q0 181 153 317q139 123 283 123q57 0 97 -21.5t55 -68.5l20 -55l39 122l168 3l-153 -563q-6 -23 -6 -51
q0 -29 8.5 -47.5t29.5 -18.5q120 0 222 158.5t102 334.5q0 227 -177 362q-161 123 -394 123q-251 0 -428.5 -177.5t-177.5 -428.5q0 -261 181.5 -447.5t440.5 -186.5q188 0 324 73q98 53 158 135l42 74h129q-29 -50 -57 -99q-81 -112 -204 -183q-172 -100 -396 -100
q-299 0 -511 213t-212 513q0 295 208 505t503 210q269 0 467 -156q210 -166 210 -415zM917 821q0 77 -30 124.5t-86 47.5q-96 0 -187.5 -160.5t-91.5 -316.5q0 -67 29 -110q35 -52 104 -52q96 0 183 177q79 161 79 290z" />
    <glyph glyph-name="A" unicode="A" horiz-adv-x="1402" 
d="M1352 0h-564v76h40q40 0 63.5 9.5t39.5 28.5q21 28 21 76q0 17 -1 25.5t-7 24.5l-94 273h-448l-85 -283q-4 -11 -5 -21t-1 -21q0 -30 11 -51t25 -31q20 -14 42.5 -22t49.5 -8h71v-76h-478v76h27q30 0 60 17q23 13 46 37q16 16 33.5 45.5t28.5 63.5l422 1328h67l441 -1310
q21 -61 43 -97.5t56 -62.5q13 -9 32 -15t47 -6h17v-76zM819 601l-200 603l-190 -603h390z" />
    <glyph glyph-name="B" unicode="B" horiz-adv-x="1269" 
d="M1180 428q0 -201 -147 -319q-135 -109 -335 -109h-663v76h61q24 0 49.5 12.5t38 33t18 50t5.5 63.5v1067v16q0 35 -2.5 57t-13.5 41t-33.5 32t-46.5 13h-76v79h627q184 0 312 -95q141 -105 141 -282q0 -133 -102 -233.5t-237 -112.5q160 0 276 -100q128 -110 128 -289z
M898 1159q0 135 -78.5 218.5t-199.5 83.5h-83q-26 0 -50.5 -6.5t-45.5 -28.5q-17 -20 -22 -40t-5 -56v-22v-461h201q121 0 202 86.5t81 225.5zM958 428q0 176 -99.5 257.5t-312.5 81.5l-128 1v-537q0 -35 6.5 -62t21.5 -48q35 -45 98 -45h76q159 0 248.5 92.5t89.5 259.5z
" />
    <glyph glyph-name="C" unicode="C" horiz-adv-x="1170" 
d="M1112 608q0 -99 -10 -168q-27 -188 -112 -307q-118 -165 -331 -165q-186 0 -327 123q-129 112 -201 304q-68 180 -68 383q0 301 148 534q162 255 408 255q100 0 181 -39q72 -44 144 -87q30 0 55 49q8 16 19 50h42l12 -574h-54q-14 68 -28 137q-43 159 -114 255
q-101 137 -248 137q-133 0 -211 -110q-65 -92 -92 -259q-20 -124 -20 -303q0 -203 24 -349q32 -193 105 -301q87 -128 230 -128q175 0 271 146q68 104 90 271l8 146h79z" />
    <glyph glyph-name="D" unicode="D" horiz-adv-x="1334" 
d="M1249 778q0 -329 -167 -548q-176 -230 -458 -230h-585v76h51q27 0 52 10q31 13 49 38q12 19 16.5 41.5t4.5 48.5v21v1067v16q0 42 -4.5 61t-15.5 35q-17 24 -41 35.5t-46 11.5h-66v79h608q246 0 420 -209q182 -219 182 -553zM1012 776q0 341 -95 517q-90 168 -255 168
h-116q-31 0 -55 -7t-43 -27.5t-25.5 -47t-6.5 -64.5v-1026q0 -69 9.5 -112t41.5 -70q16 -14 43 -22.5t56 -8.5h121q70 0 125 36q86 56 136 192q64 175 64 472z" />
    <glyph glyph-name="E" unicode="E" horiz-adv-x="1204" 
d="M1110 603l-17 -603h-1054v76h50q32 0 54.5 8t39.5 29.5t22 49t5 68.5v1071q0 92 -19 123q-14 21 -33.5 28.5t-44.5 7.5h-78v79h1033l18 -576h-65q0 50 -19.5 129.5t-56.5 159.5q-51 107 -132 161q-71 47 -155 47h-103q-36 0 -64.5 -7.5t-45.5 -26.5t-24 -47.5t-7 -70.5
v-462h103q42 0 80 21q31 17 65 53q24 26 37 82t13 113h62v-611h-60q0 48 -32 131q-26 68 -62 95q-23 16 -48.5 26t-50.5 10h-103v-543q0 -44 7.5 -68t30.5 -47q17 -16 56 -26q13 -3 36 -7h76q99 0 174 40q67 36 135 115q59 67 89 171q25 85 25 168v21q-1 8 -1 12h64z" />
    <glyph glyph-name="F" unicode="F" horiz-adv-x="1163" 
d="M1084 955h-62q0 40 -27 141q-21 78 -57 157q-51 107 -132 161q-71 47 -155 47h-103q-62 0 -104 -33q-17 -14 -27 -41.5t-10 -77.5v-462h103q45 0 81.5 19t63.5 55q22 29 36 89t14 109h65v-637h-59q0 27 -21 96q-29 96 -72 137q-26 24 -48 36q-30 16 -60 16h-99v-543
q0 -83 30 -113q15 -15 42.5 -25t57.5 -10h83v-76h-592v76h55q33 0 55 11.5t38 33.5t21 55q2 14 2 55v1071q0 88 -21 115q-11 16 -20 24q-22 20 -56 20h-76v79h1035z" />
    <glyph glyph-name="G" unicode="G" horiz-adv-x="1314" 
d="M1251 693q-45 0 -72.5 -6t-45 -16t-29.5 -31q-15 -26 -15 -59v-581h-58q-4 18 -44 71q-23 31 -32 30q-56 -50 -128 -88q-79 -42 -172 -42q-186 0 -325 124q-126 112 -197 306q-66 181 -66 384q0 299 154 532q167 252 413 252q98 0 177 -38q67 -42 135 -83q31 0 50 45
q6 15 13 45h58l5 -579h-70q-8 69 -15 139q-29 159 -98 259q-96 140 -257 140q-138 0 -220 -117q-68 -98 -96 -272q-20 -126 -20 -310q0 -196 24 -342q31 -191 102 -294q86 -126 230 -126q102 0 160 63q49 53 68 150q14 70 14 175q0 70 -10.5 126.5t-33.5 86.5
q-27 35 -67.5 45.5t-112.5 10.5v69h581v-69z" />
    <glyph glyph-name="H" unicode="H" horiz-adv-x="1328" 
d="M1285 0h-536v76h47q29 0 51.5 11t38.5 29t21.5 46.5t5.5 70.5v534h-506v-531q0 -95 34 -129q13 -13 39.5 -22.5t57.5 -9.5h53v-75h-556v75h42q39 0 62.5 12.5t38.5 30.5q23 29 23 120v1062q0 36 -5.5 69t-18.5 51t-33 28q-26 13 -61 13h-68v79h557v-79h-48
q-28 0 -52.5 -11.5t-39 -29.5t-21.5 -47t-7 -70v-462h511v461q0 44 -4 73.5t-13 40.5q-16 21 -30 30q-24 15 -63 15h-60v79h529v-77h-38q-30 0 -50 -7.5t-33 -25.5q-16 -22 -22.5 -48t-6.5 -73v-1082q0 -52 4.5 -80t23.5 -45.5t40 -21.5t54 -4h39v-76z" />
    <glyph glyph-name="I" unicode="I" horiz-adv-x="645" 
d="M610 0h-563v75h42q34 0 62 12.5t42 32.5q11 15 19 46.5t8 71.5v1064q0 47 -3.5 74t-16.5 45t-29 27q-22 13 -56 13h-68v79h563v-79h-54q-64 0 -101 -41q-17 -20 -24 -46t-7 -65v-1073q0 -86 34 -126q13 -16 40 -25.5t59 -9.5h53v-75z" />
    <glyph glyph-name="J" unicode="J" horiz-adv-x="972" 
d="M935 1464h-55q-25 0 -48 -6.5t-41 -26.5t-25.5 -52t-7.5 -70v-1006q0 -135 -103.5 -230.5t-255.5 -95.5q-172 0 -259 97q-77 86 -77 233q0 80 29 135q36 69 105 69q53 0 86 -46.5t33 -105.5q0 -56 -25 -99q-28 -49 -76 -49q-34 0 -60 13q0 -64 66 -124q59 -53 151 -53
q79 0 130.5 55.5t51.5 133.5v1066q0 80 -20 112q-14 23 -40 35t-73 12h-87v79h601v-76z" />
    <glyph glyph-name="K" unicode="K" horiz-adv-x="1376" 
d="M1346 0h-547v76h50q52 0 69.5 9.5t22.5 28.5q2 10 2 16q0 16 -9 42t-31 66l-310 560l-136 -146v-428q0 -53 12 -85q9 -23 26 -39q24 -24 83 -24h60v-76h-556v76h43q61 0 101 40q19 19 25 43.5t6 69.5v1073v24q0 43 -2 64.5t-11 32.5q-18 23 -39.5 30.5t-52.5 7.5h-76v79
h558v-79h-59q-65 0 -89 -30q-18 -21 -22.5 -41t-4.5 -81v-536l464 533q14 16 21.5 38t7.5 41q0 7 -1 13q-2 7 -3 10q-9 26 -30 39.5t-51 13.5h-63v79h480v-76h-21q-29 0 -62 -8.5t-63 -28t-68 -59.5q-11 -12 -60 -70l-276 -330l450 -802q16 -28 33.5 -47t33 -27t35 -12
t32.5 -4h28v-76z" />
    <glyph glyph-name="L" unicode="L" horiz-adv-x="1163" 
d="M1052 0h-1026v76h56q54 0 94 40q15 15 21 43t6 72v1071v33q0 33 -2.5 51t-13.5 35t-30 27q-25 13 -60 13h-71v79h560v-79h-34h-64q-37 -2 -52.5 -19.5t-22 -44.5t-6.5 -88v-1085q0 -37 4.5 -67t22.5 -50q15 -16 37 -23.5t46 -7.5h94q75 0 164 60q96 64 136 153
q35 74 55.5 168t20.5 157h63z" />
    <glyph glyph-name="M" unicode="M" horiz-adv-x="1554" 
d="M1512 0h-534v76h38q28 0 52 11.5t38 30.5t20.5 50t6.5 70v1188l-390 -1426h-63l-405 1430v-1187q0 -42 9.5 -76t32 -54.5t47.5 -28.5t48 -8h49v-76h-435v76h45q23 0 52 14.5t46 35.5q30 40 30 121v1067q0 39 -3.5 65.5t-18 47.5t-38 31t-46.5 10h-69v72h428l323 -1132
l309 1132h417v-72h-47q-62 0 -86 -29q-16 -19 -23.5 -52.5t-7.5 -72.5v-1068q0 -54 6.5 -81t24.5 -48q13 -15 32 -26q26 -15 52 -15h60v-76z" />
    <glyph glyph-name="N" unicode="N" horiz-adv-x="1311" 
d="M1276 1461h-37q-28 0 -47.5 -6.5t-36.5 -19.5q-26 -21 -36.5 -56t-10.5 -68v-1311h-72l-741 1233v-998q0 -80 39 -117q21 -21 47.5 -31.5t52.5 -10.5h60v-76h-462v76h63q26 0 53 18q18 12 35.5 32.5t26 44t8.5 68.5v1065q0 45 -6.5 69.5t-26.5 45.5q-23 24 -46 33t-56 9
h-55v79h311l693 -1154v896q0 54 -12.5 91.5t-32 53t-28.5 20.5q-26 14 -64 14h-49v79h430v-79z" />
    <glyph glyph-name="O" unicode="O" horiz-adv-x="1260" 
d="M1199 794q0 -200 -65 -383q-69 -193 -191 -309q-134 -127 -306 -127q-176 0 -311 126q-122 113 -191 308q-65 182 -65 378q0 178 70.5 358t193.5 293q135 124 298 124q175 0 310 -117q124 -107 192 -287q65 -172 65 -364zM966 791q0 188 -19 316q-27 180 -91 274
q-79 116 -219 116q-139 0 -221 -118q-69 -99 -97 -278q-21 -133 -21 -323q0 -200 19 -330q27 -187 93 -286q80 -121 222 -121q140 0 220 123q67 102 94 291q20 138 20 336z" />
    <glyph glyph-name="P" unicode="P" horiz-adv-x="1131" 
d="M1090 1145q0 -183 -117 -303t-289 -120h-267v-498q0 -74 36.5 -111.5t99.5 -37.5h78v-75h-588v75h42q34 0 62 12.5t41 30.5t19.5 44.5t6.5 68.5v1069q0 83 -18.5 109t-30.5 35q-23 17 -63 17h-59v79h617q176 0 299 -106q131 -113 131 -289zM868 1143q0 152 -63 235
t-179 83h-87q-29 0 -49 -4.5t-37 -21.5q-21 -22 -28.5 -52t-7.5 -72v-517h204q117 0 185 105q62 96 62 244z" />
    <glyph glyph-name="Q" unicode="Q" horiz-adv-x="1266" 
d="M1208 785q0 -228 -72 -402q-79 -192 -251 -333q10 -73 22 -109q38 -109 113 -109q69 0 97 90q18 58 18 144v18.5t-1 12.5h72q1 -7 1.5 -16t0.5 -25q0 -83 -13 -149q-21 -105 -69 -165q-63 -78 -169 -78q-113 0 -179 81q-60 74 -60 181v31q3 14 4 20l-65 -6
q-176 0 -316 127q-128 115 -199.5 303.5t-71.5 383.5q0 177 72 354q76 186 201 298q140 125 307 125q259 0 417 -250q141 -223 141 -527zM975 782q0 198 -17 322q-25 181 -89 279q-78 119 -217 119q-143 0 -228 -121q-70 -100 -99 -284q-22 -139 -22 -330q0 -256 45 -429
q33 -125 84 -197q34 -47 46 -47q-8 13 -21 59q-17 58 -17 96q0 98 52.5 168t137.5 70q90 0 151 -82q43 -59 68 -154q8 -42 16 -83q6 0 28 51q33 75 53 188q29 162 29 375zM749 236q0 70 -28 121q-33 60 -91 60q-54 0 -86 -53q-27 -44 -33 -113q0 -80 33 -137q38 -65 106 -73
q7 -1 21 -1q31 0 60 10q6 40 9 64q9 74 9 122z" />
    <glyph glyph-name="R" unicode="R" horiz-adv-x="1271" 
d="M1208 417q0 -2 1.5 -28.5t1.5 -39.5q0 -135 -33 -225q-50 -135 -165 -135q-143 0 -196 155q-28 83 -41 293t-50 251q-30 36 -54 50q-33 20 -80 20h-148v-532q0 -40 6 -65.5t28 -51.5q17 -21 53 -29q12 -2 34 -4h63v-76h-558v76h49q28 0 53 11t41 29.5t21.5 45.5t5.5 71
v1067q0 58 -3.5 83.5t-16 41t-33.5 26t-48 10.5h-72v79h619q168 0 297 -94q145 -106 145 -276q0 -192 -114 -301q-104 -99 -264 -99q60 -37 120 -73q51 -41 92 -134q25 -57 37 -170q8 -83 17 -166q13 -76 45 -76q3 0 11 2q28 8 45 44.5t17 78.5v141h74zM915 1143
q0 146 -81 235q-76 83 -182 83h-87q-32 0 -56 -6t-37 -21t-20.5 -43.5t-7.5 -79.5v-486h204q118 0 192.5 89.5t74.5 228.5z" />
    <glyph glyph-name="S" unicode="S" horiz-adv-x="1011" 
d="M948 424q0 -179 -119 -316q-125 -144 -307 -144q-88 0 -164 41q-73 43 -145 87q-23 0 -46.5 -28t-38.5 -64h-61v592h68l24 -144q39 -166 110 -269q100 -145 251 -145q113 0 192 94q75 89 75 199q0 170 -185 286q-173 97 -345 194q-187 133 -187 338q0 160 112 285
q117 130 278 130q126 0 196 -65t86 -65q17 0 39.5 39t27.5 71h61v-572h-61q-13 68 -25 136q-38 156 -103 254q-90 137 -219 137q-109 0 -176 -86q-59 -76 -59 -174q0 -158 187 -262q173 -91 347 -182q187 -134 187 -367z" />
    <glyph glyph-name="T" unicode="T" horiz-adv-x="1155" 
d="M1098 977h-65q0 128 -25 228q-28 112 -83 169q-47 48 -89.5 67.5t-162.5 19.5v-1230q0 -54 8.5 -78t26.5 -42t48 -26.5t62 -8.5h52v-76h-600v76h67q25 0 53 11t46 33q12 16 18 38.5t6 74.5v1227q-97 0 -132 -9q-62 -16 -121 -77q-54 -56 -81 -163.5t-27 -233.5h-65l9 563
h1046z" />
    <glyph glyph-name="U" unicode="U" horiz-adv-x="1312" 
d="M1281 1461h-30q-27 0 -48.5 -6.5t-38.5 -22.5q-27 -26 -38 -65t-11 -111v-825q0 -206 -96 -325q-113 -140 -348 -140q-210 0 -338 121q-124 117 -124 303v912q0 42 -4.5 68t-15.5 42q-16 24 -35 35q-23 14 -57 14h-63v79h556v-79h-62q-28 0 -46 -5.5t-36 -28.5
t-24.5 -52.5t-6.5 -76.5v-957q0 -133 70 -211q80 -89 235 -89q126 0 220 87t94 211v916q0 67 -9.5 103.5t-32.5 62.5q-18 20 -50.5 30t-70.5 10h-25v79h435v-79z" />
    <glyph glyph-name="V" unicode="V" horiz-adv-x="1290" 
d="M1247 1461h-28q-25 0 -43 -6.5t-35 -21t-38 -65.5q-16 -39 -33 -97l-381 -1271h-75l-405 1288q-16 53 -24 75q-13 35 -25 53q-16 22 -39.5 33.5t-61.5 11.5h-25v79h525v-79h-29q-41 0 -70.5 -4.5t-44.5 -24.5q-11 -14 -15 -27.5t-4 -32.5q0 -28 11 -63l306 -973l265 901
q19 67 19 113t-18.5 71t-40.5 32.5t-68 7.5h-26v79h403v-79z" />
    <glyph glyph-name="W" unicode="W" horiz-adv-x="1819" 
d="M1778 1461h-32q-25 0 -43.5 -8.5t-35 -30t-33.5 -63.5q-10 -26 -21 -62l-362 -1313l-71 1l-281 1007l-279 -1003h-77l-349 1297q-8 32 -21.5 69t-26 63t-33.5 34.5t-40 8.5h-32v79h464v-79h-31q-29 0 -51 -4.5t-34 -20.5q-8 -11 -11.5 -23t-3.5 -30q0 -15 4 -36t9 -41
l255 -952l217 785q0 6 -37 126.5t-51 146.5t-38.5 37.5t-54.5 11.5h-21l1 79h486v-79h-60q-29 0 -45.5 -10t-24 -26t-7.5 -43q0 -42 16 -102l251 -923l233 878q11 41 15 69t4 52q0 23 -5 39.5t-12 25.5q-16 24 -42 32t-66 8h-35v79h412v-79z" />
    <glyph glyph-name="X" unicode="X" horiz-adv-x="1342" 
d="M1303 0h-585v76h73q34 0 56.5 16.5t30.5 35.5q5 12 5 27q0 34 -26 85l-237 451l-251 -458q-7 -14 -10.5 -27.5t-3.5 -29.5q0 -31 11.5 -51.5t36.5 -34.5t55 -14h59v-76h-482v76h27q39 0 62.5 8t44 24.5t51.5 51t48 62.5l311 551l-304 561q-34 63 -69 95q-17 15 -43 23.5
t-61 8.5h-52v79h570v-79h-70q-24 0 -43 -12.5t-26 -38.5q-1 -3 -1 -11q0 -19 9 -43.5t23 -51.5l197 -347l222 374q8 15 13 30.5t5 30.5q0 13 -6 29.5t-24 28t-47 11.5h-71v79h462v-79h-45q-61 0 -112 -38q-19 -14 -46 -48q-22 -28 -37 -53l-273 -443l351 -664
q14 -27 33.5 -52t47 -45t45.5 -29q26 -13 51 -13h25v-76z" />
    <glyph glyph-name="Y" unicode="Y" horiz-adv-x="1263" 
d="M1209 1461h-34q-26 0 -49 -9.5t-47 -32.5t-54 -75q-9 -17 -25 -47l-289 -629v-440q0 -42 11 -75t32.5 -49t48.5 -22t52 -6h67v-76h-614v76h72q62 0 96 41q17 20 22 49t5 61v430l-265 623q-21 52 -42 89q-13 23 -28.5 44t-41.5 34.5t-56 13.5h-36v79h552v-79h-47
q-53 0 -80.5 -20t-27.5 -49q0 -22 5 -41q2 -7 24 -65l220 -513l243 536q7 15 11 36t4 33q0 11 -2 21.5t-4 14.5q-11 22 -28 32q-24 15 -70 15h-62v79h437v-79z" />
    <glyph glyph-name="Z" unicode="Z" horiz-adv-x="1060" 
d="M991 614l-18 -614h-912v70l683 1391h-109q-132 0 -195 -18q-130 -37 -206 -160q-36 -58 -53 -135t-17 -170h-65l16 562h858v-78l-677 -1386l164 -1q107 0 196.5 38t153.5 116q48 58 78 163q36 125 36 222h67z" />
    <glyph glyph-name="bracketleft" unicode="[" horiz-adv-x="482" 
d="M408 -354h-341v2217h341v-79q-25 0 -40 -1q-93 -8 -126 -46q-13 -15 -18.5 -36t-5.5 -47v-1778q0 -36 11.5 -63t35.5 -51q20 -20 60.5 -30t82.5 -10v-76z" />
    <glyph glyph-name="backslash" unicode="\" 
d="M825 -5h-99l-634 1545h90z" />
    <glyph glyph-name="bracketright" unicode="]" horiz-adv-x="482" 
d="M408 -354h-341v78q25 0 41 1q93 8 125 46q14 16 19.5 36t5.5 47v1778q0 36 -11.5 63t-35.5 51q-20 20 -60.5 30t-83.5 10v77h341v-2217z" />
    <glyph glyph-name="asciicircum" unicode="^" horiz-adv-x="614" 
d="M587 1298h-136l-117 168l-125 -168h-155l215 264h126z" />
    <glyph glyph-name="underscore" unicode="_" horiz-adv-x="1261" 
d="M1282 -209h-1311v101h1311v-101z" />
    <glyph glyph-name="grave" unicode="`" horiz-adv-x="527" 
d="M460 1240l-45 -52l-244 146q-49 27 -77 57q-35 38 -35 79q0 35 23 52.5t50 17.5q41 0 84 -30q35 -24 71 -69z" />
    <glyph glyph-name="a" unicode="a" horiz-adv-x="1042" 
d="M1010 206q0 -103 -53 -160t-144 -57q-74 0 -117.5 56.5t-43.5 134.5q0 -59 -100 -141q-78 -64 -180 -64q-115 0 -192 70q-82 74 -82 197q0 126 139 233q100 77 259 136q119 44 140 44v201q0 68 -52.5 112.5t-126.5 44.5q-68 0 -119 -22.5t-83 -73.5q48 0 79 -29t31 -83
q0 -52 -31 -93.5t-79 -41.5q-50 0 -81 43t-31 103q0 125 114 198q103 66 254 66q140 0 225.5 -62t85.5 -173v-654q0 -33 16 -60.5t45 -27.5q36 0 51 86q9 52 9 125v12v4h67v-124zM636 406v177q-18 0 -88 -31q-100 -44 -164 -109q-89 -90 -89 -205q0 -69 33.5 -118.5
t94.5 -49.5q106 0 164 110q49 93 49 226z" />
    <glyph glyph-name="b" unicode="b" horiz-adv-x="1057" 
d="M1012 565q0 -233 -115 -405q-127 -189 -329 -189q-74 0 -139 40.5t-128 82.5q-21 -4 -47 -47q-22 -37 -22 -47h-72q5 19 7 30q7 32 9 53q0 24 3 66t3 69v1162q0 21 -3.5 33.5t-14.5 25.5q-19 22 -53 22h-77v79l330 13v-659q45 88 100 134q66 55 155 55q174 0 291 -179
q102 -157 102 -339zM794 534q0 189 -44 318q-53 157 -153 157q-92 0 -147 -89q-45 -73 -66 -210q-16 -106 -16 -241q0 -122 10 -195q15 -108 54 -167q47 -71 131 -71q93 0 149 82q47 69 67 192q15 92 15 224z" />
    <glyph glyph-name="c" unicode="c" horiz-adv-x="919" 
d="M856 363q0 -154 -93 -267q-98 -119 -243 -119q-205 0 -332 172q-116 157 -116 378q0 210 127 378q138 182 339 182q132 0 217.5 -81.5t85.5 -202.5q0 -64 -28 -110q-32 -52 -87 -52q-51 0 -78 34.5t-27 86.5q0 77 43 109q27 20 70 20h12q2 0 5 -1q-18 42 -36 62
q-56 63 -150 63q-152 0 -227 -166q-60 -133 -60 -336q0 -116 19 -208q24 -114 73 -176q60 -75 155 -75q115 0 184 81q49 58 72 154q13 55 13 88z" />
    <glyph glyph-name="d" unicode="d" horiz-adv-x="1050" 
d="M1014 18l-303 -20l-7 177q-14 -26 -28 -51q-37 -58 -85 -95q-67 -52 -142 -52q-187 0 -295 182q-95 159 -95 381q0 113 49 237q53 135 140 219q99 96 217 96q79 0 137 -45q41 -32 93 -110v397v15q0 33 -4 53t-20 37q-12 12 -37.5 17.5t-48.5 5.5h-21q-3 0 -8 -1l-4 79
l329 11v-1327q0 -46 4.5 -70.5t27.5 -41.5q10 -7 30 -10t37 -3q18 0 28 1q2 0 6 1v-83zM704 538q0 186 -47 317q-59 165 -172 165q-111 0 -167 -160q-46 -131 -46 -322q0 -135 12 -221q17 -123 57 -190q48 -80 130 -80q123 0 185 175q48 135 48 316z" />
    <glyph glyph-name="e" unicode="e" horiz-adv-x="962" 
d="M897 357q-14 -156 -118 -266q-108 -114 -250 -114q-195 0 -329 175q-128 167 -128 384q0 211 116 374q126 177 319 177q148 0 246 -114q76 -88 114 -232q27 -101 27 -183q0 -12 -2 -20h-616q3 -63 7 -125q17 -142 69 -232q72 -125 202 -125q115 0 190 97q88 114 88 219z
M684 621q1 1 1 26q0 175 -56 281q-51 96 -140 96q-90 0 -144 -103q-39 -74 -54.5 -181t-10.5 -119h404z" />
    <glyph glyph-name="f" unicode="f" horiz-adv-x="844" 
d="M794 1370q0 -55 -28 -94q-31 -43 -78 -43q-46 0 -75.5 39t-29.5 91q0 50 37 75t35 30q-8 19 -25.5 24t-46.5 5q-75 0 -115 -48t-40 -118v-257h222v-79h-222v-764q0 -43 6 -72t26.5 -49t62.5 -29q30 -6 67 -6h19q3 0 8 1v-76h-550v76q6 -1 18 -2t20 -1q35 0 57 6
q32 9 50 31t23 48.5t5 65.5v771h-173v77h173q-2 10 -3 24t-1 38q0 92 19 169q28 113 92 177q82 82 218 82q91 0 160 -54.5t69 -137.5z" />
    <glyph glyph-name="g" unicode="g" horiz-adv-x="952" 
d="M923 -59q0 -158 -144 -260q-133 -94 -311 -94q-162 0 -280 69q-135 79 -135 214q0 93 69 157q64 60 162 74q-58 22 -86 40q-87 54 -87 124q0 53 70 119q60 56 76 56q-159 99 -159 291q0 145 104 245t257 100q50 0 88 -9t82 -31q5 55 17 82q38 83 138 83q48 0 83 -37
t35 -86q0 -36 -25 -64t-60 -28q-32 0 -53 20t-21 59q0 18 10 43l13 26q-12 -1 -19 -4q-45 -18 -53 -74q0 -9 -1 -23.5t-1 -20.5q0 -7 2 -21q63 -52 93 -110t30 -137q0 -148 -105.5 -258.5t-252.5 -110.5q-37 0 -68 7.5t-71 23.5q-24 -18 -36 -29q-36 -33 -36 -52
q0 -48 86 -70q73 -19 199 -19q173 0 269 -57q121 -72 121 -238zM609 729q0 127 -22 189q-35 97 -128 97q-71 0 -109 -58q-48 -73 -48 -235q0 -125 22 -183q35 -93 135 -93q97 0 130 95q20 58 20 188zM777 -115q0 106 -106 151q-80 34 -223 34q-110 0 -172 -34
q-82 -45 -82 -151q0 -103 78 -168t200 -65q130 0 215 61q90 65 90 172z" />
    <glyph glyph-name="h" unicode="h" horiz-adv-x="1109" 
d="M1061 0h-318v740q0 116 -17 167q-29 86 -113 86q-100 0 -164 -99q-46 -72 -69 -186q-14 -70 -14 -105v-376q0 -42 6 -71t26 -50q10 -13 50.5 -21.5t70.5 -8.5v-76h-484v76h13q43 0 65 6t37.5 20.5t24 38.5t8.5 79v1156q0 36 -18 58q-24 27 -61 27h-76v79l338 13v-683
q0 9 33 57q44 64 97 103q75 55 157 55q133 0 209 -91q69 -83 69 -212v-605q0 -38 25 -69q17 -20 62 -28q15 -2 43 -4v-76z" />
    <glyph glyph-name="i" unicode="i" horiz-adv-x="563" 
d="M350 1401q0 -60 -29.5 -97.5t-77.5 -37.5q-57 0 -87 47q-25 39 -25 99q0 54 23 88q27 40 80 40q50 0 83 -42t33 -97zM501 0h-464v70q2 0 11 -1t18 -1q33 0 51 5.5t33.5 18t25 29.5t9.5 38v742q0 19 -9.5 36.5t-24.5 30.5q-19 16 -70 22q-16 1 -47 3v72l332 11v-905
q0 -30 4 -47t21 -34q13 -13 34 -17.5t46 -4.5q10 0 21 1q3 0 9 1v-70z" />
    <glyph glyph-name="j" unicode="j" horiz-adv-x="448" 
d="M377 1403q0 -58 -34.5 -97.5t-86.5 -39.5q-48 0 -80 42t-32 95q0 57 33 100.5t85 43.5q51 0 83 -43.5t32 -100.5zM381 -141q0 -128 -80 -206q-86 -84 -234 -84q-103 0 -177 67t-74 164q0 58 28 97q32 44 89 44q45 0 72 -34.5t27 -79.5q0 -91 -47.5 -113t-47.5 -26
q0 -15 36.5 -33t67.5 -18q69 0 109.5 45.5t40.5 111.5v1113q0 21 -4 34t-16 28.5t-35.5 20.5t-54.5 5h-19q-3 0 -8 -1v71l327 11v-1217z" />
    <glyph glyph-name="k" unicode="k" horiz-adv-x="1075" 
d="M1034 -2h-272l-295 524l-97 -100v-195q0 -56 3.5 -80t23.5 -46q11 -12 49 -18.5t68 -6.5v-76h-473v76q4 0 16 -1t22 -1q22 0 42 3.5t32 12.5q26 20 33 57q3 17 3 73v1161q0 36 -18 58q-21 22 -54 22h-76v79l329 7v-1018l325 356q24 29 24 61q0 9 -2 22t-25 21.5t-56 8.5
q-26 0 -35 -1q-3 0 -7 -2l-2 71h419v-72h-5q-8 0 -15 1q-28 0 -45 -3.5t-36 -11.5q-44 -21 -72 -47q-5 -4 -11 -12l-224 -248l287 -520q17 -30 23 -39q13 -18 33 -29q11 -6 27.5 -8t34.5 -2h19q3 0 7 1v-78z" />
    <glyph glyph-name="l" unicode="l" horiz-adv-x="619" 
d="M549 0h-482v76q42 0 72 4t47 21.5t23 46t6 72.5v1159q0 16 -3 29.5t-12 27.5t-46 19.5t-87 5.5v79l330 7v-1320q0 -42 8 -75.5t24 -49t43 -21t77 -5.5v-76z" />
    <glyph glyph-name="m" unicode="m" horiz-adv-x="1612" 
d="M1559 0h-321v800q0 76 -30 125q-36 59 -109 59q-77 0 -135 -79.5t-58 -175.5v-576q0 -18 7.5 -34t21.5 -29q11 -10 27.5 -13.5t39.5 -3.5q14 0 24 1t13 2v-76h-330v843q0 59 -34 104.5t-89 45.5q-108 0 -164 -131q-45 -106 -45 -259v-425q0 -32 5.5 -50.5t24.5 -35.5
q11 -9 30.5 -12.5t46.5 -3.5h21h16v-76h-471v76q47 0 71 3t38.5 16.5t22 36.5t7.5 51v719q0 21 -6.5 37.5t-18 29t-44.5 19t-72 6.5v72l316 14v-244q0 84 91 175q72 72 173 72q94 0 167 -63.5t84 -160.5q18 97 101.5 160.5t176.5 63.5q124 0 193 -81q49 -57 65 -152
q7 -40 7 -86v-609q0 -22 11.5 -40.5t30.5 -29.5q11 -7 26 -9.5t35 -2.5q25 0 34 3v-76z" />
    <glyph glyph-name="n" unicode="n" horiz-adv-x="1135" 
d="M1072 0h-327v843q0 59 -40 103.5t-97 44.5q-104 0 -177 -130q-67 -120 -67 -265v-406q0 -42 10 -63.5t30 -32.5t51.5 -14.5t74.5 -3.5v-76h-482v76h14q32 0 48 3t36.5 17t28.5 39.5t8 62.5v693q0 44 -22 71q-18 22 -71 29q-24 3 -49 3v72l314 14v-244q7 80 115 175
q82 72 183 72q154 0 226 -98q59 -81 59 -223v-589q0 -39 8.5 -58t27 -27t50.5 -10t48 -2v-76z" />
    <glyph glyph-name="o" unicode="o" horiz-adv-x="993" 
d="M928 554q0 -222 -116 -391q-126 -183 -316 -183q-187 0 -312 173q-117 162 -117 376q0 216 117 380q126 176 312 176q189 0 314 -166q118 -156 118 -365zM722 543q0 140 -10 217q-16 123 -60 187q-55 80 -156 80q-95 0 -149 -89q-44 -72 -61 -205q-12 -93 -12 -224
q0 -136 10 -209q16 -119 60 -181q54 -76 154 -76q101 0 155 82q44 66 59 194q10 83 10 224z" />
    <glyph glyph-name="p" unicode="p" horiz-adv-x="1061" 
d="M992 540q0 -208 -105 -376q-117 -187 -294 -187q-73 0 -139 48q-58 42 -107 121v-356q0 -42 13 -68.5t34 -39.5q12 -8 37 -13q3 -1 86 -10v-74h-502v76q41 0 70.5 3.5t48 18t26 37.5t7.5 65v1074q0 37 -4.5 64.5t-15.5 42.5q-14 18 -45 23t-74 5v72l314 13v-225
q14 28 29 56q39 66 86 105q68 57 143 57q175 0 287 -164q105 -153 105 -368zM786 516q0 190 -43 318q-54 161 -161 161q-115 0 -179 -162q-52 -132 -52 -302q0 -130 13 -214q19 -120 64 -186q54 -79 147 -79q114 0 168 151q43 120 43 313z" />
    <glyph glyph-name="q" unicode="q" horiz-adv-x="1072" 
d="M1031 -408h-502v76q45 0 80.5 4t50.5 16q19 15 28 38t9 65v337q-32 -50 -57 -74q-76 -74 -169 -74q-122 0 -221 91q-85 78 -137 209q-48 121 -48 233q0 219 114 386q123 181 308 181q73 0 136 -40q58 -44 117 -87q31 0 70 54q33 46 33 58h61q-5 -12 -7 -18
q-8 -21 -10 -32t-3 -25t-1 -31v-38v-1140q0 -38 6 -58t21.5 -34t44 -18.5t76.5 -4.5v-74zM697 547q0 144 -6 204q-12 120 -51 184q-49 80 -144 80q-120 0 -178 -160q-46 -127 -46 -319q0 -195 44 -322q55 -160 166 -160q92 0 144 79q44 67 60 188q11 83 11 226z" />
    <glyph glyph-name="r" unicode="r" horiz-adv-x="844" 
d="M786 901q0 -60 -23 -98q-29 -47 -85 -47q-45 0 -69.5 36t-24.5 85q0 76 48 98q16 7 48 7q1 19 -13 32t-47 13q-72 0 -131 -106q-50 -89 -79.5 -225.5t-29.5 -238.5v-257q0 -43 11 -66.5t34 -39.5q17 -11 51 -14.5t101 -3.5v-76h-520v76q34 1 60.5 3t40.5 11q36 21 36 110
v708q0 39 -31 67q-14 12 -40.5 15.5t-57.5 3.5h-12v72l316 17v-292l26 76q36 88 82 143q65 77 143 77q75 0 122 -57q44 -54 44 -129z" />
    <glyph glyph-name="s" unicode="s" horiz-adv-x="805" 
d="M738 303q0 -129 -86 -224q-92 -102 -233 -102q-70 0 -136 30q-58 32 -115 65q-12 0 -25.5 -25t-18.5 -49h-54v403h58q8 -47 17 -94q28 -108 80 -174q75 -95 190 -95q74 0 126.5 62.5t52.5 139.5q0 112 -132 184q-123 61 -245 123q-132 90 -132 247q0 113 87 203t205 90
q68 0 116 -25q45 -27 90 -53q11 0 24 17t21 39h49l-7 -350h-56q-9 40 -17 80q-26 93 -68 150q-61 82 -148 82q-79 0 -126 -51q-42 -46 -42 -113q0 -109 136 -171q126 -58 252 -115q137 -93 137 -274z" />
    <glyph glyph-name="t" unicode="t" horiz-adv-x="729" 
d="M671 274q0 -123 -57 -202q-66 -92 -189 -92q-111 0 -179 91q-61 82 -61 198v725h-144v53q48 11 95 40q52 32 86 80t53.5 128t19.5 171h69v-400h269v-72h-269v-714q0 -87 20 -140q28 -73 90 -73q59 0 95 65q31 57 31 130v157h71v-145z" />
    <glyph glyph-name="u" unicode="u" horiz-adv-x="1095" 
d="M1069 20l-303 -27v245q0 -21 -34 -78q-43 -71 -103 -118q-80 -62 -172 -62q-146 0 -212 103q-52 82 -52 224v593q0 23 -10.5 45t-26 33t-39.5 12.5t-45 3.5v72l304 10v-845q0 -63 31 -107q35 -50 95 -50q118 0 186 131q58 112 58 266v391q0 27 -8 51.5t-25.5 45.5t-46 28
t-68.5 7v72l334 10v-874q0 -30 2.5 -48.5t26.5 -38.5q9 -8 44 -12t64 -4v-79z" />
    <glyph glyph-name="v" unicode="v" horiz-adv-x="1035" 
d="M1009 994q-38 -4 -52.5 -7.5t-36.5 -18.5q-18 -12 -32 -32q-18 -25 -32 -66l-308 -870h-71l-286 862q-9 28 -21.5 55.5t-26.5 41.5q-18 19 -42 27t-54 8h-15v72h455v-72h-24q-74 0 -98 -31q-10 -14 -10 -33q0 -7 2 -17.5t5 -21.5l213 -611l186 543q8 26 13.5 51.5
t5.5 45.5q0 25 -10 42t-40.5 24.5t-78.5 7.5v72h358v-72z" />
    <glyph glyph-name="w" unicode="w" horiz-adv-x="1617" 
d="M1564 994q-32 0 -54 -5t-37 -13q-38 -23 -69 -126l-268 -850h-72l-243 761l-240 -761h-75l-274 877q-11 55 -40.5 85.5t-90.5 30.5h-26v73h467v-72h-37q-25 0 -43.5 -9.5t-32.5 -25t-14 -42.5q0 -16 6 -34l181 -580l182 576q0 19 -5 37t-19.5 41t-43 30t-63.5 7h-19v72
h454v-72h-32q-45 0 -64 -6.5t-25 -31.5q-2 -12 -2 -18q0 -17 4.5 -36.5t6.5 -29.5l181 -570l169 541q15 48 15 75q0 25 -12.5 45t-41.5 25.5t-84 5.5v72h361v-72z" />
    <glyph glyph-name="x" unicode="x" horiz-adv-x="1091" 
d="M1047 0h-466v76h43q26 0 40 8q18 11 18 37q0 18 -12 43q-4 9 -24 42l-152 227l-144 -220q-10 -16 -16 -36.5t-6 -37.5t6.5 -29.5t25 -23t42.5 -10.5h29v-76h-397v76q73 0 115 21q21 10 45 30q30 24 44 48l213 325l-276 422q-5 9 -22 27t-27 26q-24 19 -53 19h-27v72h439
v-72h-43q-54 0 -60 -32q-1 -4 -1 -11q0 -12 5.5 -24t17.5 -30l162 -242l152 240q5 8 8 18t3 21q0 15 -6 27t-18 21q-17 12 -39 12h-47v72h397v-72h-35q-15 0 -36 -6t-46.5 -16.5t-42.5 -24.5t-35 -41l-215 -316l264 -408q30 -47 82 -80q26 -16 44.5 -21t50.5 -5v-76z" />
    <glyph glyph-name="y" unicode="y" horiz-adv-x="1102" 
d="M1037 994q-43 0 -60 -2t-33 -13.5t-36 -55.5q-15 -33 -30 -80l-329 -1011q-35 -109 -90 -168q-67 -72 -166 -72q-82 0 -138 70q-52 66 -52 154q0 50 32.5 94.5t79.5 44.5q46 0 74.5 -33.5t28.5 -85.5q0 -67 -35 -95q-24 -19 -62 -19q-22 2 -24 2q23 -37 29 -43
q23 -22 65 -22q87 0 151 104q82 133 82 230l-323 926q-8 23 -20 36q-15 13 -21 19q-9 9 -34 15q-8 2 -23 5h-45v72h455v-72h-52q-7 1 -14 1q-14 0 -26 -3.5t-23 -14.5t-11 -28q0 -10 5 -26t7 -24l217 -614l182 560q6 20 11.5 44t5.5 41q0 29 -13.5 43t-37 17.5t-65.5 3.5
h-20v72h358v-72z" />
    <glyph glyph-name="z" unicode="z" horiz-adv-x="874" 
d="M803 0h-742v76l506 918h-83h-24.5t-25.5 1q-72 0 -118 -19q-70 -29 -114 -105q-25 -43 -39.5 -98.5t-14.5 -93.5h-60l13 387h686v-72l-522 -918h125q81 0 136 20q64 23 113 77q57 61 85 168q9 35 16 96h62z" />
    <glyph glyph-name="braceleft" unicode="{" horiz-adv-x="536" 
d="M509 1565l-40 -14q-53 -22 -83 -65q-21 -30 -28.5 -67t-7.5 -74v-466q0 -22 -10 -62q-14 -54 -37 -82q-17 -20 -40 -35q-19 -12 -52 -25l-29 -11l33 -16q33 -15 46 -23q20 -12 39 -36.5t26.5 -44t7.5 -48.5v-516q0 -57 8.5 -90.5t38.5 -66.5q20 -24 36 -35q20 -15 47 -21
l36 -12h-63q-64 0 -111 14q-63 19 -99 63q-31 37 -40.5 81.5t-9.5 113.5v464q0 29 -11 64.5t-26 52.5t-36 28q-28 12 -43 19l-27 11l25 11q47 21 52 24q23 14 42 37q38 46 38 105v495q0 47 12 85.5t45 75t76.5 51.5t103.5 15h81z" />
    <glyph glyph-name="bar" unicode="|" horiz-adv-x="260" 
d="M200 -417h-135l-2 1955h134z" />
    <glyph glyph-name="braceright" unicode="}" horiz-adv-x="596" 
d="M509 643l-27 -11q-42 -18 -53.5 -24.5t-24.5 -20.5q-21 -22 -29.5 -42t-8.5 -49v-27v-348v-35t1 -38q0 -108 -14 -160.5t-41 -78.5q-40 -41 -100 -60q-50 -16 -106 -16h-65l38 11q25 6 43.5 19t39.5 37q27 32 37 69t10 88v516q0 25 8 46.5t25 47.5q16 21 38 35
q13 9 47 24l34 15l-29 11q-34 13 -51 24q-24 14 -43 37q-23 29 -36 81q-9 37 -9 62v34v433q0 36 -6 65q-9 44 -32 76q-23 26 -35 37q-19 17 -46 28l-42 13h80q62 0 103.5 -14t78.5 -53q32 -35 45 -74t13 -85v-480l2 -24q0 -28 8.5 -50t27.5 -47q13 -16 29.5 -27.5
t62.5 -32.5z" />
    <glyph glyph-name="asciitilde" unicode="~" horiz-adv-x="659" 
d="M599 1502q-24 -56 -90 -110q-60 -49 -121 -49q-38 0 -81 27q-93 58 -112 58q-27 0 -56 -30q-13 -13 -40 -53l-40 25q30 58 52 86q66 86 136 86q50 0 108 -47t98 -47q27 0 70 39q14 13 38 39z" />
    <glyph glyph-name="Adieresis" unicode="&#xc4;" horiz-adv-x="1459" 
d="M1353 0h-564v76h40q40 0 63.5 9.5t39.5 28.5q21 28 21 76q0 17 -1 25.5t-7 24.5l-94 273h-448l-85 -283q-4 -11 -5 -21t-1 -21q0 -30 11 -51t25 -31q20 -14 42.5 -22t49.5 -8h71v-76h-478v76h27q30 0 60 17q23 13 46 37q16 16 33.5 45.5t28.5 63.5l422 1328h67l441 -1310
q21 -61 43 -97.5t56 -62.5q13 -9 32 -15t47 -6h17v-76zM820 601l-200 603l-190 -603h390zM907 1760q0 -39 -24.5 -68t-60.5 -29q-31 0 -51.5 27t-20.5 61q0 37 24.5 66.5t58.5 29.5q31 0 52.5 -26.5t21.5 -60.5zM649 1760q0 -39 -24.5 -68t-60.5 -29q-31 0 -51.5 27
t-20.5 61q0 37 24.5 66.5t58.5 29.5q31 0 52.5 -26.5t21.5 -60.5z" />
    <glyph glyph-name="Aring" unicode="&#xc5;" horiz-adv-x="1450" 
d="M1353 0h-564v76h40q40 0 63.5 9.5t39.5 28.5q21 28 21 76q0 17 -1 25.5t-7 24.5l-94 273h-448l-85 -283q-4 -11 -5 -21t-1 -21q0 -30 11 -51t25 -31q20 -14 42.5 -22t49.5 -8h71v-76h-478v76h27q30 0 60 17q23 13 46 37q16 16 33.5 45.5t28.5 63.5l422 1328h67l441 -1310
q21 -61 43 -97.5t56 -62.5q13 -9 32 -15t47 -6h17v-76zM820 601l-200 603l-190 -603h390zM678 1661q-76 0 -121 50q-40 45 -40 111t40 111q45 51 121 51q77 0 121 -50q40 -45 40 -112q0 -64 -40 -110q-45 -51 -121 -51zM678 1744q38 0 59 23t21 56t-20 56q-23 26 -62 26
q-38 0 -59 -23t-21 -56t21.5 -57.5t60.5 -24.5z" />
    <glyph glyph-name="Ccedilla" unicode="&#xc7;" horiz-adv-x="1188" 
d="M1114 608l-2 -41q0 -101 -21.5 -195t-57.5 -159q-64 -118 -156 -181t-207 -63h-19q-13 2 -19 2h-24l-88 -97l25 5q29 5 46 7t34 2q23 0 45 -7q104 -30 128 -137q1 -8 2.5 -15.5t1.5 -17.5q0 -72 -63 -130t-145 -70q-20 -4 -46 -4q-22 0 -44 5.5t-49 18.5q-53 24 -47 77
q3 21 16 37t31 16q3 0 11 -2q35 -12 50 -54.5t36 -50.5q15 -5 26 -8.5t22 -3.5q7 1 10 1q38 0 59 37t21 87q0 40 -11 68q-16 45 -55 69.5t-90 24.5h-22q-19 0 -33 -3.5t-26 -14.5l-22 -11l-27 29l141 151l-18 4q-155 38 -268 180q-96 120 -150 303q-48 162 -48 311
q0 305 149 537q162 252 409 252q100 0 181 -39q72 -44 144 -87q36 0 66 64q5 11 12 30h43l7 -569h-54q-14 68 -28 137q-43 159 -114 255q-101 137 -248 137q-133 0 -211 -110q-65 -92 -92 -259q-20 -124 -20 -303q0 -203 24 -349q32 -193 105 -301q87 -128 230 -128
q175 0 271 146q68 104 90 271l8 146h81z" />
    <glyph glyph-name="Eacute" unicode="&#xc9;" horiz-adv-x="1197" 
d="M1113 603l-17 -603h-1054v76h50q32 0 54.5 8t39.5 29.5t22 49t5 68.5v1071q0 92 -19 123q-14 21 -33.5 28.5t-44.5 7.5h-78v79h1033l18 -576h-65q0 50 -19.5 129.5t-56.5 159.5q-51 107 -132 161q-71 47 -155 47h-103q-36 0 -64.5 -7.5t-45.5 -26.5t-24 -47.5t-7 -70.5
v-462h103q42 0 80 21q31 17 65 53q24 26 37 82t13 113h62v-611h-60q0 48 -32 131q-26 68 -62 95q-23 16 -48.5 26t-50.5 10h-103v-543q0 -44 7.5 -68t30.5 -47q17 -16 56 -26q13 -3 36 -7h76q99 0 174 40q67 36 135 115q59 67 89 171q25 85 25 168v21q-1 8 -1 12h64z
M794 1944q0 -41 -35 -79q-27 -30 -77 -57l-245 -146l-45 52l173 201q38 45 71 69q43 30 84 30q28 0 48 -15q26 -20 26 -55z" />
    <glyph glyph-name="Ntilde" unicode="&#xd1;" horiz-adv-x="1376" 
d="M1276 1461h-37q-28 0 -47.5 -6.5t-36.5 -19.5q-26 -21 -36.5 -56t-10.5 -68v-1311h-72l-741 1233v-998q0 -80 39 -117q21 -21 47.5 -31.5t52.5 -10.5h60v-76h-462v76h63q26 0 53 18q18 12 35.5 32.5t26 44t8.5 68.5v1065q0 45 -6.5 69.5t-26.5 45.5q-23 24 -46 33t-56 9
h-55v79h311l693 -1154v896q0 54 -12.5 91.5t-32 53t-28.5 20.5q-26 14 -64 14h-49v79h430v-79zM969 1823q-24 -56 -90 -110q-60 -49 -121 -49q-38 0 -81 27q-93 58 -112 58q-27 0 -56 -30q-13 -13 -40 -53l-40 25q30 58 52 86q66 86 136 86q50 0 108 -47t98 -47q27 0 70 39
q14 13 38 39z" />
    <glyph glyph-name="Odieresis" unicode="&#xd6;" horiz-adv-x="1262" 
d="M1199 794q0 -200 -65 -383q-69 -193 -191 -309q-134 -127 -306 -127q-176 0 -311 126q-122 113 -191 308q-65 182 -65 378q0 178 70.5 358t193.5 293q135 124 298 124q175 0 310 -117q124 -107 192 -287q65 -172 65 -364zM966 791q0 188 -19 316q-27 180 -91 274
q-79 116 -219 116q-139 0 -221 -118q-69 -99 -97 -278q-21 -133 -21 -323q0 -200 19 -330q27 -187 93 -286q80 -121 222 -121q140 0 220 123q67 102 94 291q20 138 20 336zM879 1755q0 -39 -24.5 -68t-60.5 -29q-31 0 -51.5 27t-20.5 61q0 37 24.5 66.5t58.5 29.5
q31 0 52.5 -26.5t21.5 -60.5zM621 1755q0 -39 -24.5 -68t-60.5 -29q-31 0 -51.5 27t-20.5 61q0 37 24.5 66.5t58.5 29.5q31 0 52.5 -26.5t21.5 -60.5z" />
    <glyph glyph-name="Udieresis" unicode="&#xdc;" horiz-adv-x="1371" 
d="M1281 1461h-30q-27 0 -48.5 -6.5t-38.5 -22.5q-27 -26 -38 -65t-11 -111v-825q0 -206 -96 -325q-113 -140 -348 -140q-210 0 -338 121q-124 117 -124 303v912q0 42 -4.5 68t-15.5 42q-16 24 -35 35q-23 14 -57 14h-63v79h556v-79h-62q-28 0 -46 -5.5t-36 -28.5
t-24.5 -52.5t-6.5 -76.5v-957q0 -133 70 -211q80 -89 235 -89q126 0 220 87t94 211v916q0 67 -9.5 103.5t-32.5 62.5q-18 20 -50.5 30t-70.5 10h-25v79h435v-79zM956 1755q0 -39 -24.5 -68t-60.5 -29q-31 0 -51.5 27t-20.5 61q0 37 24.5 66.5t58.5 29.5q31 0 52.5 -26.5
t21.5 -60.5zM698 1755q0 -39 -24.5 -68t-60.5 -29q-31 0 -51.5 27t-20.5 61q0 37 24.5 66.5t58.5 29.5q31 0 52.5 -26.5t21.5 -60.5z" />
    <glyph glyph-name="aacute" unicode="&#xe1;" horiz-adv-x="1044" 
d="M1011 206q0 -103 -53 -160t-144 -57q-74 0 -117.5 56.5t-43.5 134.5q0 -59 -100 -141q-78 -64 -180 -64q-115 0 -192 70q-82 74 -82 197q0 126 139 233q100 77 259 136q119 44 140 44v201q0 68 -52.5 112.5t-126.5 44.5q-68 0 -119 -22.5t-83 -73.5q48 0 79 -29t31 -83
q0 -52 -31 -93.5t-79 -41.5q-50 0 -81 43t-31 103q0 125 114 198q103 66 254 66q140 0 225.5 -62t85.5 -173v-654q0 -33 16 -60.5t45 -27.5q36 0 51 86q9 52 9 125v12v4h67v-124zM637 406v177q-18 0 -88 -31q-100 -44 -164 -109q-89 -90 -89 -205q0 -69 33.5 -118.5
t94.5 -49.5q106 0 164 110q49 93 49 226zM784 1461q0 -41 -35 -79q-27 -30 -77 -57l-245 -146l-45 52l173 201q38 45 71 69q43 30 84 30q28 0 48 -15q26 -20 26 -55z" />
    <glyph glyph-name="agrave" unicode="&#xe0;" horiz-adv-x="1040" 
d="M1011 206q0 -103 -53 -160t-144 -57q-74 0 -117.5 56.5t-43.5 134.5q0 -59 -100 -141q-78 -64 -180 -64q-115 0 -192 70q-82 74 -82 197q0 126 139 233q100 77 259 136q119 44 140 44v201q0 68 -52.5 112.5t-126.5 44.5q-68 0 -119 -22.5t-83 -73.5q48 0 79 -29t31 -83
q0 -52 -31 -93.5t-79 -41.5q-50 0 -81 43t-31 103q0 125 114 198q103 66 254 66q140 0 225.5 -62t85.5 -173v-654q0 -33 16 -60.5t45 -27.5q36 0 51 86q9 52 9 125v12v4h67v-124zM637 406v177q-18 0 -88 -31q-100 -44 -164 -109q-89 -90 -89 -205q0 -69 33.5 -118.5
t94.5 -49.5q106 0 164 110q49 93 49 226zM752 1231l-45 -52l-244 146q-49 27 -77 57q-35 38 -35 79q0 35 23 52.5t50 17.5q41 0 84 -30q35 -24 71 -69z" />
    <glyph glyph-name="acircumflex" unicode="&#xe2;" horiz-adv-x="1040" 
d="M1011 206q0 -103 -53 -160t-144 -57q-74 0 -117.5 56.5t-43.5 134.5q0 -59 -100 -141q-78 -64 -180 -64q-115 0 -192 70q-82 74 -82 197q0 126 139 233q100 77 259 136q119 44 140 44v201q0 68 -52.5 112.5t-126.5 44.5q-68 0 -119 -22.5t-83 -73.5q48 0 79 -29t31 -83
q0 -52 -31 -93.5t-79 -41.5q-50 0 -81 43t-31 103q0 125 114 198q103 66 254 66q140 0 225.5 -62t85.5 -173v-654q0 -33 16 -60.5t45 -27.5q36 0 51 86q9 52 9 125v12v4h67v-124zM637 406v177q-18 0 -88 -31q-100 -44 -164 -109q-89 -90 -89 -205q0 -69 33.5 -118.5
t94.5 -49.5q106 0 164 110q49 93 49 226zM811 1179h-136l-117 168l-125 -168h-155l215 264h126z" />
    <glyph glyph-name="adieresis" unicode="&#xe4;" horiz-adv-x="1042" 
d="M1010 206q0 -103 -53 -160t-144 -57q-74 0 -117.5 56.5t-43.5 134.5q0 -59 -100 -141q-78 -64 -180 -64q-115 0 -192 70q-82 74 -82 197q0 126 139 233q100 77 259 136q119 44 140 44v201q0 68 -52.5 112.5t-126.5 44.5q-68 0 -119 -22.5t-83 -73.5q48 0 79 -29t31 -83
q0 -52 -31 -93.5t-79 -41.5q-50 0 -81 43t-31 103q0 125 114 198q103 66 254 66q140 0 225.5 -62t85.5 -173v-654q0 -33 16 -60.5t45 -27.5q36 0 51 86q9 52 9 125v12v4h67v-124zM636 406v177q-18 0 -88 -31q-100 -44 -164 -109q-89 -90 -89 -205q0 -69 33.5 -118.5
t94.5 -49.5q106 0 164 110q49 93 49 226zM780 1271q0 -39 -24.5 -68t-60.5 -29q-31 0 -51.5 27t-20.5 61q0 37 24.5 66.5t58.5 29.5q31 0 52.5 -26.5t21.5 -60.5zM522 1271q0 -39 -24.5 -68t-60.5 -29q-31 0 -51.5 27t-20.5 61q0 37 24.5 66.5t58.5 29.5q31 0 52.5 -26.5
t21.5 -60.5z" />
    <glyph glyph-name="atilde" unicode="&#xe3;" horiz-adv-x="1042" 
d="M1011 206q0 -103 -53 -160t-144 -57q-74 0 -117.5 56.5t-43.5 134.5q0 -59 -100 -141q-78 -64 -180 -64q-115 0 -192 70q-82 74 -82 197q0 126 139 233q100 77 259 136q119 44 140 44v201q0 68 -52.5 112.5t-126.5 44.5q-68 0 -119 -22.5t-83 -73.5q48 0 79 -29t31 -83
q0 -52 -31 -93.5t-79 -41.5q-50 0 -81 43t-31 103q0 125 114 198q103 66 254 66q140 0 225.5 -62t85.5 -173v-654q0 -33 16 -60.5t45 -27.5q36 0 51 86q9 52 9 125v12v4h67v-124zM637 406v177q-18 0 -88 -31q-100 -44 -164 -109q-89 -90 -89 -205q0 -69 33.5 -118.5
t94.5 -49.5q106 0 164 110q49 93 49 226zM840 1336q-24 -56 -90 -110q-60 -49 -121 -49q-38 0 -81 27q-93 58 -112 58q-27 0 -56 -30q-13 -13 -40 -53l-40 25q30 58 52 86q66 86 136 86q50 0 108 -47t98 -47q27 0 70 39q14 13 38 39z" />
    <glyph glyph-name="aring" unicode="&#xe5;" horiz-adv-x="1037" 
d="M1011 206q0 -103 -53 -160t-144 -57q-74 0 -117.5 56.5t-43.5 134.5q0 -59 -100 -141q-78 -64 -180 -64q-115 0 -192 70q-82 74 -82 197q0 126 139 233q100 77 259 136q119 44 140 44v201q0 68 -52.5 112.5t-126.5 44.5q-68 0 -119 -22.5t-83 -73.5q48 0 79 -29t31 -83
q0 -52 -31 -93.5t-79 -41.5q-50 0 -81 43t-31 103q0 125 114 198q103 66 254 66q140 0 225.5 -62t85.5 -173v-654q0 -33 16 -60.5t45 -27.5q36 0 51 86q9 52 9 125v12v4h67v-124zM637 406v177q-18 0 -88 -31q-100 -44 -164 -109q-89 -90 -89 -205q0 -69 33.5 -118.5
t94.5 -49.5q106 0 164 110q49 93 49 226zM542 1179q-76 0 -121 50q-40 45 -40 111t40 111q45 51 121 51q77 0 121 -50q40 -45 40 -112q0 -64 -40 -110q-45 -51 -121 -51zM542 1262q38 0 59 23t21 56t-20 56q-23 26 -62 26q-38 0 -59 -23t-21 -56t21.5 -57.5t60.5 -24.5z" />
    <glyph glyph-name="ccedilla" unicode="&#xe7;" 
d="M856 363q0 -150 -87 -261.5t-224 -124.5q-35 0 -47.5 0.5t-22.5 2.5l-87 -97l25 5q29 5 46 7t34 2q13 0 21 -1t24 -6q104 -31 128 -137q1 -8 2.5 -15.5t1.5 -17.5q0 -72 -63 -129.5t-145 -70.5q-10 -2 -22.5 -3t-23.5 -1q-22 0 -44 5.5t-49 18.5q-47 21 -47 77
q0 21 12.5 37t33.5 16q4 0 12 -2q37 -10 51 -53t34 -52q11 -5 21 -8t20 -3q4 0 18 2q38 6 59 43t21 84q0 33 -11 63q-16 44 -56 69t-90 25q-37 0 -78 -18l-25 -11l-27 29l142 151l-18 9q-156 42 -246 217q-77 149 -77 312q0 216 127 382q136 178 339 178q132 0 217.5 -81.5
t85.5 -202.5q0 -64 -28 -110q-32 -52 -87 -52q-51 0 -78 34.5t-27 86.5q0 77 43 109q27 20 70 20h12q2 0 5 -1q-18 42 -36 62q-56 63 -150 63q-152 0 -227 -166q-60 -133 -60 -336q0 -116 19 -208q24 -114 73 -176q60 -75 155 -75q115 0 184 81q49 58 72 154q13 55 13 88z
" />
    <glyph glyph-name="eacute" unicode="&#xe9;" horiz-adv-x="950" 
d="M897 357q-14 -156 -118 -266q-108 -114 -250 -114q-195 0 -329 175q-128 167 -128 384q0 211 116 374q126 177 319 177q148 0 246 -114q76 -88 114 -232q27 -101 27 -183q0 -12 -2 -20h-616q3 -63 7 -125q17 -142 69 -232q72 -125 202 -125q115 0 190 97q88 114 88 219z
M684 621q1 1 1 26q0 175 -56 281q-51 96 -140 96q-90 0 -144 -103q-39 -74 -54.5 -181t-10.5 -119h404zM711 1461q0 -41 -35 -79q-27 -30 -77 -57l-245 -146l-45 52l173 201q38 45 71 69q43 30 84 30q28 0 48 -15q26 -20 26 -55z" />
    <glyph glyph-name="egrave" unicode="&#xe8;" horiz-adv-x="963" 
d="M897 357q-14 -156 -118 -266q-108 -114 -250 -114q-195 0 -329 175q-128 167 -128 384q0 211 116 374q126 177 319 177q148 0 246 -114q76 -88 114 -232q27 -101 27 -183q0 -12 -2 -20h-616q3 -63 7 -125q17 -142 69 -232q72 -125 202 -125q115 0 190 97q88 114 88 219z
M684 621q1 1 1 26q0 175 -56 281q-51 96 -140 96q-90 0 -144 -103q-39 -74 -54.5 -181t-10.5 -119h404zM710 1242l-45 -52l-244 146q-49 27 -77 57q-35 38 -35 79q0 35 23 52.5t50 17.5q41 0 84 -30q35 -24 71 -69z" />
    <glyph glyph-name="ecircumflex" unicode="&#xea;" horiz-adv-x="957" 
d="M897 357q-14 -156 -118 -266q-108 -114 -250 -114q-195 0 -329 175q-128 167 -128 384q0 211 116 374q126 177 319 177q148 0 246 -114q76 -88 114 -232q27 -101 27 -183q0 -12 -2 -20h-616q3 -63 7 -125q17 -142 69 -232q72 -125 202 -125q115 0 190 97q88 114 88 219z
M684 621q1 1 1 26q0 175 -56 281q-51 96 -140 96q-90 0 -144 -103q-39 -74 -54.5 -181t-10.5 -119h404zM799 1179h-136l-117 168l-125 -168h-155l215 264h126z" />
    <glyph glyph-name="edieresis" unicode="&#xeb;" horiz-adv-x="952" 
d="M897 357q-14 -156 -118 -266q-108 -114 -250 -114q-195 0 -329 175q-128 167 -128 384q0 211 116 374q126 177 319 177q148 0 246 -114q76 -88 114 -232q27 -101 27 -183q0 -12 -2 -20h-616q3 -63 7 -125q17 -142 69 -232q72 -125 202 -125q115 0 190 97q88 114 88 219z
M684 621q1 1 1 26q0 175 -56 281q-51 96 -140 96q-90 0 -144 -103q-39 -74 -54.5 -181t-10.5 -119h404zM738 1271q0 -39 -24.5 -68t-60.5 -29q-31 0 -51.5 27t-20.5 61q0 37 24.5 66.5t58.5 29.5q31 0 52.5 -26.5t21.5 -60.5zM480 1271q0 -39 -24.5 -68t-60.5 -29
q-31 0 -51.5 27t-20.5 61q0 37 24.5 66.5t58.5 29.5q31 0 52.5 -26.5t21.5 -60.5z" />
    <glyph glyph-name="iacute" unicode="&#xed;" horiz-adv-x="563" 
d="M509 0h-464v70q2 0 11 -1t18 -1q33 0 51 5.5t33.5 18t25 29.5t9.5 38v749q0 19 -9 36t-25 31q-11 9 -33.5 13.5t-45.5 4.5q-13 0 -21.5 -0.5t-15.5 -1.5v72l331 17v-909q0 -30 4 -47t21 -34q13 -13 34 -17.5t46 -4.5q10 0 21 1q3 0 9 1v-70zM448 1461q0 -41 -35 -79
q-27 -30 -77 -57l-245 -146l-45 52l173 201q38 45 71 69q43 30 84 30q28 0 48 -15q26 -20 26 -55z" />
    <glyph glyph-name="igrave" unicode="&#xec;" horiz-adv-x="568" 
d="M517 0h-464v70q2 0 11 -1t18 -1q33 0 51 5.5t33.5 18t25 29.5t9.5 38v749q0 19 -9 36t-25 31q-11 9 -33.5 13.5t-45.5 4.5q-13 0 -21.5 -0.5t-15.5 -1.5v72l331 17v-909q0 -30 4 -47t21 -34q13 -13 34 -17.5t46 -4.5q10 0 21 1q3 0 9 1v-70zM437 1231l-45 -52l-244 146
q-49 27 -77 57q-35 38 -35 79q0 35 23 52.5t50 17.5q41 0 84 -30q35 -24 71 -69z" />
    <glyph glyph-name="icircumflex" unicode="&#xee;" horiz-adv-x="566" 
d="M508 0h-464v70q2 0 11 -1t18 -1q33 0 51 5.5t33.5 18t25 29.5t9.5 38l3 749q0 20 -9.5 35.5t-27.5 31.5q-11 9 -33.5 13.5t-45.5 4.5q-13 0 -21.5 -0.5t-15.5 -1.5v72l331 17v-909q0 -30 4 -47t21 -34q13 -13 34 -17.5t46 -4.5q10 0 21 1q3 0 9 1v-70zM525 1179h-136
l-117 168l-125 -168h-155l215 264h126z" />
    <glyph glyph-name="idieresis" unicode="&#xef;" horiz-adv-x="568" 
d="M516 0h-464v70q2 0 11 -1t18 -1q33 0 51 5.5t33.5 18t25 29.5t9.5 38l2 749q0 19 -9.5 35.5t-26.5 31.5q-11 9 -33.5 13.5t-45.5 4.5q-20 0 -31 -1q-2 0 -7 -1v72l332 17v-909q0 -30 4 -47t21 -34q13 -13 34 -17.5t46 -4.5q10 0 21 1q3 0 9 1v-70zM488 1271
q0 -39 -24.5 -68t-60.5 -29q-31 0 -51.5 27t-20.5 61q0 37 24.5 66.5t58.5 29.5q31 0 52.5 -26.5t21.5 -60.5zM230 1271q0 -39 -24.5 -68t-60.5 -29q-31 0 -51.5 27t-20.5 61q0 37 24.5 66.5t58.5 29.5q31 0 52.5 -26.5t21.5 -60.5z" />
    <glyph glyph-name="ntilde" unicode="&#xf1;" horiz-adv-x="1167" 
d="M1072 0h-327v843q0 59 -40 103.5t-97 44.5q-104 0 -177 -130q-67 -120 -67 -265v-406q0 -42 10 -63.5t30 -32.5t51.5 -14.5t74.5 -3.5v-76h-482v76h14q32 0 48 3t36.5 17t28.5 39.5t8 62.5v693q0 44 -22 71q-18 22 -71 29q-24 3 -49 3v72l314 14v-244q7 80 115 175
q82 72 183 72q154 0 226 -98q59 -81 59 -223v-589q0 -39 8.5 -58t27 -27t50.5 -10t48 -2v-76zM840 1336q-24 -56 -90 -110q-60 -49 -121 -49q-38 0 -81 27q-93 58 -112 58q-27 0 -56 -30q-13 -13 -40 -53l-40 25q30 58 52 86q66 86 136 86q50 0 108 -47t98 -47q27 0 70 39
q14 13 38 39z" />
    <glyph glyph-name="oacute" unicode="&#xf3;" horiz-adv-x="990" 
d="M928 554q0 -222 -116 -391q-126 -183 -316 -183q-187 0 -312 173q-117 162 -117 376q0 216 117 380q126 176 312 176q189 0 314 -166q118 -156 118 -365zM722 543q0 140 -10 217q-16 123 -60 187q-55 80 -156 80q-95 0 -149 -89q-44 -72 -61 -205q-12 -93 -12 -224
q0 -136 10 -209q16 -119 60 -181q54 -76 154 -76q101 0 155 82q44 66 59 194q10 83 10 224zM724 1461q0 -41 -35 -79q-27 -30 -77 -57l-245 -146l-45 52l173 201q38 45 71 69q43 30 84 30q28 0 48 -15q26 -20 26 -55z" />
    <glyph glyph-name="ograve" unicode="&#xf2;" horiz-adv-x="986" 
d="M928 554q0 -222 -116 -391q-126 -183 -316 -183q-187 0 -312 173q-117 162 -117 376q0 216 117 380q126 176 312 176q189 0 314 -166q118 -156 118 -365zM722 543q0 140 -10 217q-16 123 -60 187q-55 80 -156 80q-95 0 -149 -89q-44 -72 -61 -205q-12 -93 -12 -224
q0 -136 10 -209q16 -119 60 -181q54 -76 154 -76q101 0 155 82q44 66 59 194q10 83 10 224zM768 1231l-45 -52l-244 146q-49 27 -77 57q-35 38 -35 79q0 35 23 52.5t50 17.5q41 0 84 -30q35 -24 71 -69z" />
    <glyph glyph-name="ocircumflex" unicode="&#xf4;" horiz-adv-x="986" 
d="M928 554q0 -222 -116 -391q-126 -183 -316 -183q-187 0 -312 173q-117 162 -117 376q0 216 117 380q126 176 312 176q189 0 314 -166q118 -156 118 -365zM722 543q0 140 -10 217q-16 123 -60 187q-55 80 -156 80q-95 0 -149 -89q-44 -72 -61 -205q-12 -93 -12 -224
q0 -136 10 -209q16 -119 60 -181q54 -76 154 -76q101 0 155 82q44 66 59 194q10 83 10 224zM787 1179h-136l-117 168l-125 -168h-155l215 264h126z" />
    <glyph glyph-name="odieresis" unicode="&#xf6;" horiz-adv-x="995" 
d="M928 554q0 -222 -116 -391q-126 -183 -316 -183q-187 0 -312 173q-117 162 -117 376q0 216 117 380q126 176 312 176q189 0 314 -166q118 -156 118 -365zM722 543q0 140 -10 217q-16 123 -60 187q-55 80 -156 80q-95 0 -149 -89q-44 -72 -61 -205q-12 -93 -12 -224
q0 -136 10 -209q16 -119 60 -181q54 -76 154 -76q101 0 155 82q44 66 59 194q10 83 10 224zM726 1271q0 -39 -24.5 -68t-60.5 -29q-31 0 -51.5 27t-20.5 61q0 37 24.5 66.5t58.5 29.5q31 0 52.5 -26.5t21.5 -60.5zM468 1271q0 -39 -24.5 -68t-60.5 -29q-31 0 -51.5 27
t-20.5 61q0 37 24.5 66.5t58.5 29.5q31 0 52.5 -26.5t21.5 -60.5z" />
    <glyph glyph-name="otilde" unicode="&#xf5;" horiz-adv-x="986" 
d="M928 554q0 -222 -116 -391q-126 -183 -316 -183q-187 0 -312 173q-117 162 -117 376q0 216 117 380q126 176 312 176q189 0 314 -166q118 -156 118 -365zM722 543q0 140 -10 217q-16 123 -60 187q-55 80 -156 80q-95 0 -149 -89q-44 -72 -61 -205q-12 -93 -12 -224
q0 -136 10 -209q16 -119 60 -181q54 -76 154 -76q101 0 155 82q44 66 59 194q10 83 10 224zM790 1336q-24 -56 -90 -110q-60 -49 -121 -49q-38 0 -81 27q-93 58 -112 58q-27 0 -56 -30q-13 -13 -40 -53l-40 25q30 58 52 86q66 86 136 86q50 0 108 -47t98 -47q27 0 70 39
q14 13 38 39z" />
    <glyph glyph-name="uacute" unicode="&#xfa;" horiz-adv-x="1114" 
d="M1069 20l-303 -27v245q0 -21 -34 -78q-43 -71 -103 -118q-80 -62 -172 -62q-146 0 -212 103q-52 82 -52 224v593q0 23 -10.5 45t-26 33t-39.5 12.5t-45 3.5v72l304 10v-845q0 -63 31 -107q35 -50 95 -50q118 0 186 131q58 112 58 266v391q0 27 -8 51.5t-25.5 45.5t-46 28
t-68.5 7v72l334 10v-874q0 -30 2.5 -48.5t26.5 -38.5q9 -8 44 -12t64 -4v-79zM803 1461q0 -41 -35 -79q-27 -30 -77 -57l-245 -146l-45 52l173 201q38 45 71 69q43 30 84 30q28 0 48 -15q26 -20 26 -55z" />
    <glyph glyph-name="ugrave" unicode="&#xf9;" horiz-adv-x="1127" 
d="M1073 20l-303 -27v245q0 -21 -34 -78q-43 -71 -103 -118q-80 -62 -172 -62q-146 0 -212 103q-52 82 -52 224v593q0 23 -10.5 45t-26 33t-39.5 12.5t-45 3.5v72l304 10v-845q0 -63 31 -107q35 -50 95 -50q118 0 186 131q58 112 58 266v391q0 27 -8 51.5t-25.5 45.5t-46 28
t-68.5 7v72l334 10v-874q0 -30 2.5 -48.5t26.5 -38.5q9 -8 44 -12t64 -4v-79zM797 1231l-45 -52l-244 146q-49 27 -77 57q-35 38 -35 79q0 35 23 52.5t50 17.5q41 0 84 -30q35 -24 71 -69z" />
    <glyph glyph-name="ucircumflex" unicode="&#xfb;" horiz-adv-x="1132" 
d="M1073 20l-303 -27v245q0 -21 -34 -78q-43 -71 -103 -118q-80 -62 -172 -62q-146 0 -212 103q-52 82 -52 224v593q0 23 -10.5 45t-26 33t-39.5 12.5t-45 3.5v72l304 10v-845q0 -63 31 -107q35 -50 95 -50q118 0 186 131q58 112 58 266v391q0 27 -8 51.5t-25.5 45.5t-46 28
t-68.5 7v72l334 10v-874q0 -30 2.5 -48.5t26.5 -38.5q9 -8 44 -12t64 -4v-79zM843 1179h-136l-117 168l-125 -168h-155l215 264h126z" />
    <glyph glyph-name="udieresis" unicode="&#xfc;" horiz-adv-x="1125" 
d="M1073 20l-303 -27v245q0 -21 -34 -78q-43 -71 -103 -118q-80 -62 -172 -62q-146 0 -212 103q-52 82 -52 224v593q0 23 -10.5 45t-26 33t-39.5 12.5t-45 3.5v72l304 10v-845q0 -63 31 -107q35 -50 95 -50q118 0 186 131q58 112 58 266v391q0 27 -8 51.5t-25.5 45.5t-46 28
t-68.5 7v72l334 10v-874q0 -30 2.5 -48.5t26.5 -38.5q9 -8 44 -12t64 -4v-79zM769 1271q0 -39 -24.5 -68t-60.5 -29q-31 0 -51.5 27t-20.5 61q0 37 24.5 66.5t58.5 29.5q31 0 52.5 -26.5t21.5 -60.5zM511 1271q0 -39 -24.5 -68t-60.5 -29q-31 0 -51.5 27t-20.5 61
q0 37 24.5 66.5t58.5 29.5q31 0 52.5 -26.5t21.5 -60.5z" />
    <glyph glyph-name="dagger" unicode="&#x2020;" horiz-adv-x="894" 
d="M843 961q0 -52 -34.5 -85.5t-79.5 -33.5q-26 0 -47 11l-104 53q-2 2 -12 9t-17 9q-18 7 -36 7h-33v-71q0 -59 4 -93t19 -56t33 -39t36 -33q-24 -50 -47.5 -101.5t-33.5 -107.5q-6 -39 -8.5 -79.5t-2.5 -87.5v-62v-742h-79v738v51.5t1 50.5q0 46 -1.5 70t-7.5 59
q-12 65 -25 106.5t-40 99.5q18 19 36 38.5t31.5 42t16.5 55.5t3 90v71h-32h-17q-6 -1 -15 -4t-17.5 -8.5t-15.5 -10.5l-103 -55q-21 -11 -46 -11q-45 0 -80 34t-35 85q0 55 31.5 88.5t76.5 33.5q26 0 53 -12l108 -50l27 -12q16 -5 33 -9h34v49q0 11 -1 23q-4 25 -6 43t-8 44
t-11 46l-44 180q-4 20 -4 46q0 63 25 105q29 48 81 48q50 0 75 -43q22 -37 22 -99q0 -31 -6 -60l-37 -170q-6 -28 -8 -39q-7 -32 -10 -54.5t-4 -34.5t-1 -40v-46h31q9 0 19 3.5t19 7.5l25 9l108 56q25 14 50 14q44 0 77.5 -37t33.5 -90z" />
    <glyph glyph-name="degree" unicode="&#xb0;" horiz-adv-x="451" 
d="M231 1206q-76 0 -121 50q-40 45 -40 111t40 111q45 51 121 51q77 0 121 -50q40 -45 40 -112q0 -64 -40 -110q-45 -51 -121 -51zM231 1289q38 0 59 23t21 56t-20 56q-23 26 -62 26q-38 0 -59 -23t-21 -56t21.5 -57.5t60.5 -24.5z" />
    <glyph glyph-name="cent" unicode="&#xa2;" horiz-adv-x="769" 
d="M706 655q0 -82 -33 -153q-27 -57 -61 -85q-43 -35 -85 -52t-94 -17v-287h-61v289l-15 4q-143 40 -220 189q-63 122 -63 271q0 144 68 249q72 111 215 172l15 7v213h61v-209h15q58 -7 97 -21t75.5 -47.5t56 -79t19.5 -92.5q0 -15 -1 -22q-5 -47 -31 -75t-65 -28t-63 31
t-24 71v15q0 3 4 15q8 33 37 53.5t66 20.5l-11 23q-10 19 -31 35.5t-44.5 25.5t-48 12t-51.5 3v-782q42 0 78.5 15.5t69.5 42.5q23 19 46 75q28 68 28 133zM372 415v751q-66 -44 -98 -141t-32 -234q0 -152 29 -244q33 -103 101 -132z" />
    <glyph glyph-name="sterling" unicode="&#xa3;" horiz-adv-x="1186" 
d="M1125 262q0 -85 -98 -193q-81 -89 -195 -89q-75 0 -146 43q-23 14 -56 44q-60 -33 -120 -65q-78 -29 -158 -29q-113 0 -197 52q-94 59 -94 155q7 79 68 132.5t142 53.5t171 -45q67 -33 130 -85q25 -24 51 -47q31 45 46 91.5t15 100.5q0 78 -39 154q-47 91 -107 131h-334
v76h267q-5 0 -62 65q-75 84 -117 161q-63 113 -63 209q0 152 98 270q103 124 249 124q112 0 195 -75t83 -182q0 -54 -26 -96q-30 -48 -77 -48q-46 0 -73.5 41t-27.5 94q0 55 26 85q21 25 68 38q-30 41 -65.5 61t-84.5 20q-106 0 -168 -84q-51 -69 -51 -147q0 -69 25 -134
t62 -104l287 -298h296v-76h-245q27 -53 38.5 -95t11.5 -98q0 -108 -35.5 -189.5t-115.5 -151.5q66 -51 142 -51q68 0 124 56q40 40 70 104q11 28 23 57zM540 115q-3 14 -88 68q-97 62 -156 62q-36 0 -65 -21.5t-29 -55.5q0 -53 50 -87q46 -31 107 -31q48 0 116 29
q57 25 65 36z" />
    <glyph glyph-name="section" unicode="&#xa7;" horiz-adv-x="946" 
d="M885 1298q12 -30 12 -65q0 -33 -10 -61.5t-31 -46.5q-25 -22 -54 -22q-27 0 -51 18.5t-36 46.5q-6 14 -8 26.5t-2 27.5q0 18 7 54t7 56q0 29 -10 54.5t-39 57.5q-21 24 -69.5 41.5t-100.5 17.5q-72 0 -127 -32q-65 -38 -95 -115q-11 -29 -11 -64q0 -63 39 -124
q36 -56 93 -94l292 -191q92 -59 132 -109q51 -63 51 -144q0 -75 -15 -118q-19 -54 -72 -104l-52 -54l27 -24q69 -63 95 -133q22 -60 22 -156q0 -158 -116.5 -267.5t-278.5 -109.5t-270 78t-149 220q-3 8 -6.5 28.5t-3.5 37.5q0 42 12 71q16 39 52 60q24 14 50 14
q29 0 51.5 -17t35.5 -46q5 -11 8 -27.5t3 -28.5q0 -29 -12 -68q-27 -87 -27 -108q0 -19 4.5 -33t16.5 -31q37 -51 102 -72q49 -16 127 -16q92 0 167 64q79 67 79 156q0 88 -49 164q-45 70 -121 114l-292 180q-87 53 -122 99q-41 54 -41 134q0 81 28 138.5t95 118.5l34 32
l-56 60q-43 45 -63 94.5t-20 114.5q0 164 116 267q110 98 265 98q147 0 241 -63t146 -199zM713 574q-11 37 -37 66q-20 22 -57 46l-303 204l-20 -25q-22 -29 -31.5 -57t-9.5 -60q0 -18 1 -28q0 -42 30 -80q25 -31 68 -57l319 -197l26 49q22 43 22 83q0 24 -8 56z" />
    <glyph glyph-name="bullet" unicode="&#x2022;" horiz-adv-x="511" 
d="M269 547q-93 0 -149 63q-51 57 -51 137q0 78 47 131q53 59 144 59q93 0 149 -63q51 -57 51 -137q0 -78 -47 -131q-53 -59 -144 -59z" />
    <glyph glyph-name="paragraph" unicode="&#xb6;" horiz-adv-x="1318" 
d="M1253 1475h-22q-21 0 -63.5 -5.5t-67.5 -14.5t-40 -34q-18 -30 -18 -83v-1439q0 -25 7 -46.5t25 -32.5q26 -16 58 -20t69 -4h41v-61h-36q-101 3 -201 5t-187 2q-111 0 -221.5 -2.5t-188.5 -4.5h-33v65h47q29 0 59 6q43 9 71 28q16 12 22.5 32.5t6.5 50.5v874h-23
q-37 0 -107 19q-95 26 -184 73.5t-146 140t-57 198.5q0 59 21 116q43 113 162 162q96 40 246 40h32q99 -9 374 -9q86 0 176 3t153 6h25v-65zM581 874v587h-34q-95 10 -177 -81q-65 -73 -65 -187t71 -203.5t187 -112.5zM883 -184v1641h-139v-1641h139z" />
    <glyph glyph-name="germandbls" unicode="&#xdf;" horiz-adv-x="1246" 
d="M1170 175q-41 -96 -133 -145.5t-221 -49.5q-138 0 -232.5 80t-94.5 196q0 42 22.5 73.5t57.5 36.5q7 1 19 1q46 0 76.5 -26.5t41.5 -69.5q6 -22 8.5 -45.5t2.5 -44.5q0 -12 -0.5 -23.5t-0.5 -21.5q0 -29 10.5 -47.5t44.5 -34.5q21 -9 50 -9q28 0 54 7t44 20
q35 27 53.5 75.5t18.5 103.5q0 52 -14.5 95.5t-43.5 72.5l-346 345q-15 21 -21.5 39t-6.5 39q0 15 2 23q8 55 68 124q57 62 114 125q64 79 78 155q4 25 4.5 34.5t0.5 15.5q0 71 -40 117q-45 52 -134 61q-6 1 -17 1q-93 0 -172.5 -90.5t-79.5 -181.5v-1226h-338v63l34 4
q15 0 22 2t25 10q32 15 44 48q9 24 9 69q0 11 -1 36.5t-1 38.5v812q0 205 124 337q132 140 354 140q164 0 263 -66.5t99 -185.5v-23q-3 -17 -4 -25q-13 -81 -86 -140q-65 -41 -130.5 -83t-65.5 -84q0 -25 18 -54q6 -9 23 -28t35 -35l240 -240q147 -147 147 -304
q0 -60 -24 -117z" />
    <glyph glyph-name="registered" unicode="&#xae;" horiz-adv-x="1654" 
d="M847 0q-243 0 -422 112q-164 102 -254 282q-84 168 -84 367q0 198 84 366q89 179 254 282q180 113 422 113q243 0 422 -112q163 -102 253 -282q85 -170 85 -367q0 -198 -84 -366q-90 -180 -253 -282q-181 -113 -423 -113zM847 81q321 0 510 212q170 190 170 467
q0 276 -170 467q-188 212 -510 212q-321 0 -509 -212q-170 -191 -170 -467q0 -277 169 -467q188 -212 510 -212zM1255 341h-9q-13 0 -34 2t-35 2q-13 0 -38.5 -2t-28.5 -2l-16 -2l-334 434l4 18l43 -2q85 0 152 46q73 50 73 124q-1 9 -1 14q-6 63 -36 101q-35 44 -101 54
q-23 3 -47 3q-35 0 -63 -3.5t-46 -8.5l-16 -5v-670q0 -16 2.5 -25t10.5 -20q13 -15 34.5 -17t33.5 -3l29 -2v-34h-18q-43 3 -79.5 5t-68.5 2q-41 0 -81.5 -2.5t-71.5 -4.5h-17v36l33 2q19 0 34 3t28.5 16.5t13.5 43.5v628q0 25 -2 32q-1 5 -13 21q-6 7 -32 12.5t-51 5.5h-11
v34h17q10 0 72.5 -2.5t80.5 -2.5q65 0 122.5 1.5t99.5 3.5h22q7 1 22 1q66 0 121 -27q65 -32 88 -91q7 -18 10 -35t3 -35q0 -53 -30 -99.5t-84 -81.5q-20 -14 -48 -25q-36 -15 -64 -20l-9 -2l267 -354q2 -2 12.5 -10t18.5 -12q4 -3 16 -6t16 -3h6v-36z" />
    <glyph glyph-name="copyright" unicode="&#xa9;" horiz-adv-x="1659" 
d="M847 0q-243 0 -422 112q-164 102 -254 282q-84 168 -84 367q0 198 84 366q89 179 254 282q180 113 422 113q243 0 422 -112q163 -102 253 -282q85 -170 85 -367q0 -198 -84 -366q-90 -180 -253 -282q-181 -113 -423 -113zM847 81q321 0 510 212q170 190 170 467
q0 276 -170 467q-188 212 -510 212q-321 0 -509 -212q-170 -191 -170 -467q0 -277 169 -467q188 -212 510 -212zM1170 442l-22 -52l-29 -13q-41 -21 -105 -38q-79 -21 -142 -21q-197 0 -322 102.5t-144 276.5q-4 32 -4 68q0 180 114 296q94 96 237 123q46 7 99 7
q41 0 77 -3.5t69 -9.5t84 -20q31 -9 63 -17l16 -5l-22 -179h-36v74l-2 14q0 24 -52 52q-43 23 -94 35q-5 1 -22 3q-50 7 -81 7q-33 0 -65 -6q-135 -31 -201 -131q-59 -89 -59 -222q0 -39 4 -70q19 -141 118.5 -236.5t231.5 -95.5q88 0 151 17q49 13 98 42l29 15z" />
    <glyph glyph-name="trademark" unicode="&#x2122;" horiz-adv-x="1757" 
d="M1681 1506h-16q-27 0 -46.5 -2t-27.5 -13q-10 -10 -12.5 -18t-2.5 -29v-563q0 -15 2.5 -23t12.5 -17q9 -13 29 -16q24 -1 32 -2l25 -2v-32h-18q-38 4 -72 6.5t-58 2.5q-35 0 -71.5 -3.5t-63.5 -5.5h-20v34l31 2q20 0 32 2t24 15t12 39v527l-294 -630h-22l-294 623v-520
q0 -24 16 -40q10 -13 29 -16q23 -1 29 -2l25 -2v-32h-14q-40 4 -75 6.5t-59 2.5q-22 0 -43.5 -3t-46.5 -6h-18v34l29 2q23 0 34.5 2t21.5 14q8 7 11 17.5t3 22.5v563q0 24 -2 30q-2 5 -11 15.5t-32.5 13.5t-39.5 3h-14v34h18q23 -3 40 -5t32 -2q27 0 55.5 2.5t49.5 4.5h14
l278 -598l112 228q29 60 58 116q45 89 74 158q1 3 12.5 29t18.5 47l5 20h18q25 -4 48.5 -6.5t40.5 -2.5q21 0 44.5 3t40.5 6h16v-34zM666 1542l-7 -179h-31l-7 69q-2 7 -5 18t-8 18q-9 14 -30 14l-168 2v-603q0 -17 1.5 -24.5t10.5 -15.5q9 -13 26.5 -15t31.5 -3l27 -2v-32
h-18q-37 4 -72.5 6.5t-59.5 2.5q-32 0 -64.5 -3t-70.5 -6h-16v34l30 2q27 0 35.5 2.5t17.5 13.5q9 7 12.5 16.5t3.5 23.5v603l-166 -5q-18 0 -23.5 -7.5t-7.5 -11.5q-6 -9 -7 -16l-11 -81h-31l-7 179l18 -2q76 -3 151 -5t138 -2q80 0 157 2.5t130 4.5z" />
    <glyph glyph-name="acute" unicode="&#xb4;" horiz-adv-x="540" 
d="M469 1470q0 -41 -35 -79q-27 -30 -77 -57l-245 -146l-45 52l173 201q38 45 71 69q43 30 84 30q28 0 48 -15q26 -20 26 -55z" />
    <glyph glyph-name="dieresis" unicode="&#xa8;" horiz-adv-x="545" 
d="M480 1455q0 -39 -24.5 -68t-60.5 -29q-31 0 -51.5 27t-20.5 61q0 37 24.5 66.5t58.5 29.5q31 0 52.5 -26.5t21.5 -60.5zM222 1455q0 -39 -24.5 -68t-60.5 -29q-31 0 -51.5 27t-20.5 61q0 37 24.5 66.5t58.5 29.5q31 0 52.5 -26.5t21.5 -60.5z" />
    <glyph glyph-name="notequal" unicode="&#x2260;" horiz-adv-x="1035" 
d="M997 596h-880v118h880v-118zM997 264h-880v117h880v-117zM966 931l-800 -865h-114l810 865h104z" />
    <glyph glyph-name="AE" unicode="&#xc6;" horiz-adv-x="1980" 
d="M1941 603l-17 -603h-1109l25 76h70q29 0 40.5 4.5t44.5 33.5q21 20 36 54.5t15 71.5l-2 273h-448l-177 -283q-13 -21 -19.5 -42t-6.5 -37q0 -14 4.5 -26.5t10.5 -18.5q15 -13 35.5 -21.5t47.5 -8.5h71l-25 -76h-478l25 76h27q30 0 65 17q28 13 58 37q20 14 46 43
q31 33 52 66l709 1130q-2 11 -3 18q-5 20 -16 38q-14 21 -33.5 28.5t-44.5 7.5h-78v79h1033l18 -576h-65q0 50 -19.5 129.5t-56.5 159.5q-51 107 -132 161q-71 47 -155 47h-103q-36 0 -64.5 -7.5t-45.5 -26.5t-24 -47.5t-7 -70.5v-462h103q42 0 80 21q31 17 65 53
q24 26 37 82t13 113h62v-611h-60q0 48 -32 131q-26 68 -62 95q-23 16 -48.5 26t-50.5 10h-103v-543q0 -44 7.5 -68t30.5 -47q17 -16 56 -26q13 -3 36 -7h76q99 0 174 40q67 36 135 115q59 67 89 171q25 85 25 168v21q-1 8 -1 12h64zM1041 601v603l-390 -603h390z" />
    <glyph glyph-name="Oslash" unicode="&#xd8;" horiz-adv-x="1253" 
d="M1199 794q0 -200 -65 -383q-69 -193 -191 -309q-134 -127 -306 -127q-65 0 -123 16t-110 47l-48 -118h-99l72 174q-124 114 -194 310q-65 182 -65 383q0 178 70.5 358t193.5 293q135 124 298 124q77 0 144 -21.5t126 -63.5l59 142h90l-82 -200q108 -110 169 -278.5
t61 -346.5zM858 1371q-38 59 -90 91q-58 35 -131 35q-139 0 -221 -118q-69 -99 -97 -278q-21 -133 -21 -323q0 -112 6 -208.5t23.5 -188t52.5 -164.5zM966 791q0 137 -11 244q-14 136 -48 233l-467 -1143q36 -40 84 -62t108 -22q140 0 220 123q67 102 94 291q20 138 20 336z
" />
    <glyph glyph-name="infinity" unicode="&#x221e;" horiz-adv-x="1683" 
d="M1618 549q0 -150 -99 -248q-93 -92 -221 -92q-83 0 -176 38q-101 41 -180 116l-101 94l-101 -94q-76 -73 -178 -115q-94 -39 -176 -39q-129 0 -222 92q-99 98 -99 248q0 130 96 221t229 91q84 0 165 -37t160 -109l126 -114l127 114q76 69 159.5 107.5t163.5 38.5
q134 0 230.5 -90.5t96.5 -221.5zM1506 540q0 87 -64.5 144.5t-157.5 57.5q-51 0 -93.5 -15.5t-127.5 -78.5l-153 -114l141 -130q52 -48 105 -68t126 -20q100 0 162 65t62 159zM771 534l-150 114q-68 50 -104 67q-56 27 -118 27q-92 0 -155.5 -57.5t-63.5 -144.5
q-1 -14 -1 -21q0 -84 63.5 -143.5t158.5 -59.5q73 0 125 19.5t106 68.5z" />
    <glyph glyph-name="plusminus" unicode="&#xb1;" horiz-adv-x="980" 
d="M924 623h-375v-372h-96v372h-372l2 106h370v374h101v-374h370v-106zM915 -2h-848v78h848v-78z" />
    <glyph glyph-name="lessequal" unicode="&#x2264;" horiz-adv-x="1188" 
d="M1123 260l-1064 489v119l1064 506v-132l-908 -444l908 -417v-121zM1123 -2h-1064v117h1064v-117z" />
    <glyph glyph-name="greaterequal" unicode="&#x2265;" horiz-adv-x="1195" 
d="M1123 749l-1064 -489v121l907 417l-907 444v132l1064 -506v-119zM1123 -2h-1064v117h1064v-117z" />
    <glyph glyph-name="yen" unicode="&#xa5;" horiz-adv-x="1309" 
d="M1242 1466q-48 0 -69 -5.5t-61 -37.5q-27 -21 -56 -73q-9 -17 -23 -48l-181 -408h249v-105h-298l-59 -121v-20h359v-108h-359v-309q0 -42 8 -67.5t37 -57.5q14 -16 36 -22t42 -6h10q1 0 2 1h76v-79h-614v76h72q28 0 54 10.5t42.5 31t21.5 49t5 60.5v313h-354v108h354v9
l-54 132h-302v105h257l-166 395q-26 63 -30 72q-17 35 -41 62q-17 22 -35 33q-22 14 -46 14h-52v70h552v-72h-70q-32 0 -58.5 -21.5t-26.5 -52.5q0 -26 9 -52q14 -32 20 -49l224 -504l242 529q7 16 8 38t1 34q0 31 -24.5 52.5t-55.5 21.5h-83v76h437v-74z" />
    <glyph glyph-name="mu" unicode="&#xb5;" horiz-adv-x="1352" 
d="M1275 220l-11 -70q-13 -83 -99 -141q-76 -51 -150 -51q-12 0 -17 1q-73 11 -131 72.5t-67 145.5l-56 -58q-67 -64 -147 -108.5t-135 -44.5q-57 0 -125 31q-83 38 -128 100v-81q0 -61 24 -131q52 -152 52 -228q0 -59 -28 -100q-31 -46 -82 -46q-47 0 -76 39t-29 91
q0 80 27 158q33 93 37 127t4.5 44t0.5 28v1109h188v-764q0 -95 56.5 -166t145.5 -71q88 0 179 70q99 76 99 165v766h182v-862q0 -69 32 -122q36 -59 91 -59q9 0 13 1q36 5 63.5 33.5t35.5 72.5l11 49h40z" />
    <glyph glyph-name="partialdiff" unicode="&#x2202;" horiz-adv-x="1060" 
d="M1002 823q0 -201 -59 -393q-64 -207 -173 -331q-123 -139 -278 -139h-17q-12 2 -18 2q-188 18 -295 133q-103 111 -103 282q0 187 120 324q124 142 303 142q76 0 141 -26q52 -21 128 -73l63 -47l15 108q5 30 8 65t3 70q0 214 -89 361q-101 167 -278 167q-51 0 -102.5 -17
t-101.5 -34l-38 -14l-81 99l90 27q60 18 100.5 24.5t99.5 6.5q254 0 415 -234q147 -214 147 -503zM796 619l-56 56q-33 31 -64 47t-75 27q-26 6 -51 6q-102 0 -185 -91q-75 -82 -107 -204q-19 -66 -19 -139q0 -108 43 -184q49 -86 142 -114q27 -8 56 -8q78 0 140 71
q52 60 93 170q32 87 54 199z" />
    <glyph glyph-name="summation" unicode="&#x3a3;" horiz-adv-x="1560" 
d="M1504 240q-21 -62 -35.5 -116t-27.5 -124q-9 -56 -16.5 -110.5t-7.5 -113.5l-151 29h-1214l753 823l-742 925l141 -13h1148l2 -339h-43q0 60 -18 103.5t-59.5 82.5t-95.5 50q-34 7 -114 7h-620l596 -722l-639 -715h854q43 0 73 11.5t66 40.5q92 66 105 181h45z" />
    <glyph glyph-name="product" unicode="&#x220f;" horiz-adv-x="1784" 
d="M1715 -202h-664v40h56q46 0 71 6t50 32q18 19 24.5 43t6.5 54q0 11 -0.5 22t-0.5 23v1399h-774v-1388q0 -61 7 -88q11 -43 47 -71q26 -19 51 -23t70 -4h43v-45h-661v47h51q46 0 69 4t48 25q33 25 43 69q6 27 6 89v1261q0 49 -16 84.5t-53 68.5q-27 22 -49 31.5t-55 13.5
l-35 2v47h1665v-49l-50 -3q-49 0 -98 -40q-38 -34 -52.5 -78t-14.5 -108v-1246q0 -54 7.5 -84.5t39.5 -57.5q23 -23 50.5 -31.5t65.5 -8.5l52 -2v-34z" />
    <glyph glyph-name="pi" unicode="&#x3c0;" horiz-adv-x="1293" 
d="M1224 325l-9 -51q-14 -128 -91 -215q-83 -93 -200 -93q-105 0 -155 109q-41 89 -41 234q0 30 1 46t4 49l54 486h-265l-91 -719q-12 -84 -49 -145q-44 -73 -105 -73h-16l-12 4q-40 12 -60 27q-26 19 -32.5 46.5t-6.5 41.5q0 42 34 81q106 120 109.5 129.5t20.5 51.5
q13 32 16 58l51 489h-74h-22h-19q-17 0 -31.5 -2t-32.5 -9q-30 -12 -59 -42q-39 -41 -55 -79l-38 13l11 34q55 121 69 143q42 68 110 103q40 18 74 26t76 8h818v-186h-298l-29 -542q0 -75 38 -131q42 -62 110 -62q52 0 89.5 36.5t51.5 93.5l9 40h45z" />
    <glyph glyph-name="integral" unicode="&#x222b;" horiz-adv-x="666" 
d="M603 1634q-3 -34 -28 -55t-64 -21q-19 0 -40 16q-29 22 -37.5 26t-16.5 4q-18 0 -25.5 -26t-7.5 -77q0 -50 9 -150q20 -222 20 -271v-656q0 -144 -11 -255q-17 -172 -59 -269q-54 -126 -147 -126q-13 0 -23.5 1t-22.5 5q-29 7 -52 30q-27 27 -27 59q1 7 1 10
q3 33 24.5 54.5t53.5 21.5q27 0 49.5 -26.5t38.5 -31.5q8 -2 12 -2q27 0 38 48t11 132q0 33 -3.5 122.5t-3.5 129.5v913q0 130 12 219q17 125 56 193q48 83 127 83q43 0 80 -25.5t37 -62.5q0 -9 -1 -13z" />
    <glyph glyph-name="ordfeminine" unicode="&#xaa;" horiz-adv-x="813" 
d="M700 972q0 -68 -35 -106t-95 -38q-49 0 -78 37.5t-29 88.5q-22 -46 -41 -68q-58 -68 -144 -68q-74 0 -126 47q-55 50 -55 130q0 84 92 155q62 48 172 89q80 30 92 30v133q0 45 -34.5 74.5t-84.5 29.5q-47 0 -79 -14t-54 -49q32 0 52 -19t20 -56q0 -34 -20.5 -61.5
t-51.5 -27.5q-33 0 -53.5 28.5t-20.5 68.5q0 82 75 131q68 44 168 44q92 0 149 -41.5t57 -114.5v-433q0 -24 10 -41.5t30 -17.5q24 0 34 58q6 35 6 84v9h44v-82zM453 1104v117q-12 0 -58 -20q-67 -29 -109 -72q-59 -60 -59 -136q0 -46 22.5 -79t62.5 -33q70 0 108 73
q33 63 33 150zM713 594h-587v107h587v-107z" />
    <glyph glyph-name="ordmasculine" unicode="&#xba;" horiz-adv-x="793" 
d="M704 1188q0 -151 -77 -263q-84 -122 -212 -122q-126 0 -210 116q-78 108 -78 252t79 255q84 118 209 118q126 0 210 -111q79 -105 79 -245zM566 1180q0 145 -21 214q-34 111 -130 111q-63 0 -100 -60q-30 -48 -39.5 -123.5t-9.5 -163.5q0 -140 21 -206q34 -107 129 -107
q68 0 104 55q30 46 40 130q6 51 6 150zM696 594h-587v107h587v-107z" />
    <glyph glyph-name="Omega" unicode="&#x3a9;" horiz-adv-x="1596" 
d="M1542 -2h-623l31 305q148 69 223 200q71 124 71 297q0 142 -32 232q-39 112 -131 169q-104 65 -281 65q-238 0 -352 -137q-98 -118 -98 -329q0 -173 70 -296q75 -132 226 -201l31 -305h-625v320h40q0 -20 4 -36.5t16 -36.5q19 -27 46 -38.5t64 -11.5h341v63
q-201 34 -327 187t-126 362q0 244 196 386q188 136 492 136q319 0 501 -135q187 -139 187 -387q0 -209 -126 -362t-329 -187v-63h339q40 0 67 11t47 39q18 36 18 73h40v-320z" />
    <glyph glyph-name="ae" unicode="&#xe6;" horiz-adv-x="1488" 
d="M1426 357q-14 -156 -118 -266q-108 -114 -250 -114q-112 0 -202 55q-70 43 -126 121q-36 51 -69 121q0 -13 -37 -79q-50 -89 -109 -143q-84 -77 -176 -77q-115 0 -192 70q-82 74 -82 197q0 126 139 233q100 77 259 136q119 44 140 44v201q0 68 -52.5 112.5t-126.5 44.5
q-68 0 -119 -22.5t-83 -73.5q48 0 79 -29t31 -83q0 -52 -31 -93.5t-79 -41.5q-50 0 -81 43t-31 103q0 125 114 198q103 66 254 66q102 0 163 -27q52 -23 117 -90q59 62 131.5 93t146.5 31q148 0 246 -114q76 -88 114 -232q27 -101 27 -183q0 -12 -2 -20h-616q3 -63 7 -125
q17 -142 69 -232q72 -125 202 -125q115 0 190 97q88 114 88 219zM1213 621q1 1 1 26q0 175 -56 281q-51 96 -140 96q-90 0 -144 -103q-39 -74 -54.5 -181t-10.5 -119h404zM603 406v177q-18 0 -88 -31q-100 -44 -164 -109q-89 -90 -89 -205q0 -69 33.5 -118.5t94.5 -49.5
q106 0 164 110q49 93 49 226z" />
    <glyph glyph-name="oslash" unicode="&#xf8;" horiz-adv-x="988" 
d="M928 554q0 -222 -116 -391q-126 -183 -316 -183q-66 0 -122.5 22t-109.5 66l-60 -102h-99l98 164q-65 79 -100.5 183t-35.5 216q0 216 117 380q126 176 312 176q65 0 123.5 -21.5t107.5 -60.5l77 128h89l-109 -184q67 -79 105.5 -182t38.5 -211zM672 912q-25 56 -66 84
q-44 31 -110 31q-95 0 -149 -89q-44 -72 -61 -205q-12 -93 -12 -224q0 -65 3.5 -122.5t12.5 -111.5zM722 543q0 95 -3 151t-15 117l-383 -647q25 -57 66 -87q46 -34 111 -34q101 0 155 82q44 66 59 194q10 83 10 224z" />
    <glyph glyph-name="questiondown" unicode="&#xbf;" horiz-adv-x="814" 
d="M536 1123q0 -53 -32 -94.5t-80 -41.5q-58 0 -88.5 42t-30.5 101q0 63 24 100q30 46 93 46q57 0 88 -49q26 -42 26 -104zM751 63q0 -148 -84 -246q-91 -106 -243 -106q-164 0 -266 95t-102 244q0 109 67 207q33 48 138 155q88 90 114 151q17 42 24 92.5t7 96.5q0 18 -1 32
t-1 23h69v-13.5v-17.5q0 -65 -6 -123q-9 -86 -30 -135q-26 -61 -83 -128t-77 -112q-35 -78 -35 -201q0 -122 44 -200q54 -96 167 -96q88 0 151.5 62.5t63.5 150.5q-22 -7 -47 -7q-46 0 -73.5 42.5t-27.5 96.5q0 51 30 91.5t78 40.5q62 0 94 -56q29 -51 29 -139z" />
    <glyph glyph-name="exclamdown" unicode="&#xa1;" horiz-adv-x="372" 
d="M303 1123q0 -53 -32 -94.5t-80 -41.5q-58 0 -88.5 42t-30.5 101q0 63 24 100q30 46 93 46q57 0 88 -49q26 -41 26 -104zM303 -127q0 -63 -24 -105q-30 -52 -88 -52q-64 0 -95 54q-24 42 -24 110l85 966h67z" />
    <glyph glyph-name="logicalnot" unicode="&#xac;" horiz-adv-x="1632" 
d="M1574 0h-126v531h-1396v117h1522v-648z" />
    <glyph glyph-name="radical" unicode="&#x221a;" horiz-adv-x="1080" 
d="M1029 1697l-294 -1796l-477 949l-184 -94l-29 65l280 132l388 -758l251 1513z" />
    <glyph glyph-name="florin" unicode="&#x192;" horiz-adv-x="1015" 
d="M957 1623q-24 -76 -110 -76q-17 0 -35 16q-24 21 -34.5 26.5t-19.5 5.5q-32 0 -50 -80q-9 -42 -23.5 -176t-27.5 -191l-11 -43h208l-9 -87h-222l-127 -637q-28 -138 -64 -253q-55 -173 -120 -271q-84 -126 -182 -126q-25 0 -49 7q-24 9 -41.5 31.5t-17.5 47.5q0 10 3 19
q12 37 36.5 58t59.5 21q29 0 45.5 -28.5t27.5 -31.5t15 -3q35 0 63 75q22 59 44 172l34 186l148 735h-229l5 87h257l12 56q31 148 67 253q48 138 105 215q67 90 146 90q37 0 68 -23.5t31 -55.5q0 -10 -3 -19z" />
    <glyph glyph-name="approxequal" unicode="&#x2248;" horiz-adv-x="1361" 
d="M1314 814l-48 -54q-58 -69 -125.5 -100.5t-158.5 -31.5q-58 0 -116.5 17.5t-116.5 36.5l-191 51q-52 16 -75 22q-39 11 -71 11q-24 0 -51 -6q-53 -10 -88.5 -30.5t-77.5 -63.5l-38 -40l-98 62l31 34q61 66 120 98t147 48q42 5 70 5q43 0 81.5 -8t99.5 -27l168 -51
q43 -16 88 -31.5t85 -15.5q6 0 14.5 1t13.5 1q67 0 113.5 19t90.5 66l41 45zM1314 446l-48 -51q-60 -70 -126.5 -102.5t-157.5 -32.5q-57 0 -116 18t-117 36l-191 54q-92 25 -95 26q-26 5 -56 5h-26q-14 -3 -20 -4q-51 -11 -90 -35q-35 -21 -76 -62l-38 -40l-98 60l31 39
q62 63 120 95q64 35 147 46q38 7 74 7q40 0 85 -10q28 -6 92 -26l168 -50q49 -16 100 -31.5t101 -15.5q64 0 112 21t92 67l41 42z" />
    <glyph glyph-name="Delta" unicode="&#x2206;" horiz-adv-x="1502" 
d="M1448 0h-1383l738 1551zM1175 101l-460 1080l-506 -1080h966z" />
    <glyph glyph-name="guillemotleft" unicode="&#xab;" horiz-adv-x="1116" 
d="M1065 823l-316 -227l307 -219v-229l-437 343v220l446 327v-215zM505 823l-312 -227l307 -219v-229l-439 343v220l444 327v-215z" />
    <glyph glyph-name="guillemotright" unicode="&#xbb;" horiz-adv-x="1121" 
d="M1056 491l-439 -343v229l309 219l-314 227v215l444 -327v-220zM500 491l-439 -343v229l309 219l-316 227v215l446 -327v-220z" />
    <glyph glyph-name="ellipsis" unicode="&#x2026;" horiz-adv-x="1449" 
d="M866 121q0 -63 -24 -100q-30 -46 -92 -46q-57 0 -88 49q-27 43 -27 104q0 53 32 95t80 42q58 0 90 -45q29 -41 29 -99zM1412 124q0 -63 -24 -100q-30 -46 -92 -46q-57 0 -88 49q-27 43 -27 104q0 53 32 95t80 42q58 0 90 -45q29 -41 29 -99zM296 121q0 -63 -24 -100
q-30 -46 -92 -46q-57 0 -88 49q-27 43 -27 104q0 53 32 95t80 42q58 0 90 -45q29 -41 29 -99z" />
    <glyph glyph-name="nonbreakingspace" unicode="&#xa0;" horiz-adv-x="810" 
 />
    <glyph glyph-name="Agrave" unicode="&#xc0;" horiz-adv-x="1439" 
d="M1347 0h-564v76h40q40 0 63.5 9.5t39.5 28.5q21 28 21 76q0 17 -1 25.5t-7 24.5l-94 273h-448l-85 -283q-4 -11 -5 -21t-1 -21q0 -30 11 -51t25 -31q20 -14 42.5 -22t49.5 -8h71v-76h-478v76h27q30 0 60 17q23 13 46 37q16 16 33.5 45.5t28.5 63.5l422 1328h67l441 -1310
q21 -61 43 -97.5t56 -62.5q13 -9 32 -15t47 -6h17v-76zM814 601l-200 603l-190 -603h390zM875 1712l-45 -52l-244 146q-49 27 -77 57q-35 38 -35 79q0 35 23 52.5t50 17.5q41 0 84 -30q35 -24 71 -69z" />
    <glyph glyph-name="Atilde" unicode="&#xc3;" horiz-adv-x="1450" 
d="M1352 0h-564v76h40q40 0 63.5 9.5t39.5 28.5q21 28 21 76q0 17 -1 25.5t-7 24.5l-94 273h-448l-85 -283q-4 -11 -5 -21t-1 -21q0 -30 11 -51t25 -31q20 -14 42.5 -22t49.5 -8h71v-76h-478v76h27q30 0 60 17q23 13 46 37q16 16 33.5 45.5t28.5 63.5l422 1328h67l441 -1310
q21 -61 43 -97.5t56 -62.5q13 -9 32 -15t47 -6h17v-76zM819 601l-200 603l-190 -603h390zM954 1818q-24 -56 -90 -110q-60 -49 -121 -49q-38 0 -81 27q-93 58 -112 58q-27 0 -56 -30q-13 -13 -40 -53l-40 25q30 58 52 86q66 86 136 86q50 0 108 -47t98 -47q27 0 70 39
q14 13 38 39z" />
    <glyph glyph-name="Otilde" unicode="&#xd5;" horiz-adv-x="1255" 
d="M1199 794q0 -200 -65 -383q-69 -193 -191 -309q-134 -127 -306 -127q-176 0 -311 126q-122 113 -191 308q-65 182 -65 378q0 178 70.5 358t193.5 293q135 124 298 124q175 0 310 -117q124 -107 192 -287q65 -172 65 -364zM966 791q0 188 -19 316q-27 180 -91 274
q-79 116 -219 116q-139 0 -221 -118q-69 -99 -97 -278q-21 -133 -21 -323q0 -200 19 -330q27 -187 93 -286q80 -121 222 -121q140 0 220 123q67 102 94 291q20 138 20 336zM923 1825q-24 -56 -90 -110q-60 -49 -121 -49q-38 0 -81 27q-93 58 -112 58q-27 0 -56 -30
q-13 -13 -40 -53l-40 25q30 58 52 86q66 86 136 86q50 0 108 -47t98 -47q27 0 70 39q14 13 38 39z" />
    <glyph glyph-name="OE" unicode="&#x152;" horiz-adv-x="2020" 
d="M1900 603l-17 -603h-1114q-21 -8 -36 -12q-49 -13 -96 -13q-176 0 -311 126q-122 113 -191 308q-65 182 -65 378q0 178 70.5 358t193.5 293q135 124 298 124q55 0 106 -11q17 -3 40 -11h1080l18 -576h-65q0 50 -19.5 129.5t-56.5 159.5q-51 107 -132 161q-71 47 -155 47
h-103q-36 0 -64.5 -7.5t-45.5 -26.5t-24 -47.5t-7 -70.5v-462h103q42 0 80 21q31 17 65 53q24 26 37 82t13 113h62v-611h-60q0 48 -32 131q-26 68 -62 95q-23 16 -48.5 26t-50.5 10h-103v-543q0 -44 7.5 -68t30.5 -47q17 -16 56 -25q13 -2 36 -5h76q99 0 174 39
q68 35 135 113q59 67 89 171q25 85 25 168v21q-1 8 -1 12h64zM966 791q0 188 -19 316q-27 180 -91 274q-79 116 -219 116q-139 0 -221 -118q-69 -99 -97 -278q-21 -133 -21 -323q0 -200 19 -330q27 -187 93 -286q80 -121 222 -121q140 0 220 123q67 102 94 291
q20 138 20 336z" />
    <glyph glyph-name="oe" unicode="&#x153;" horiz-adv-x="1627" 
d="M1547 357q-14 -156 -118 -266q-108 -114 -250 -114q-104 0 -195 56q-84 52 -148 144q-60 -100 -143 -155q-90 -59 -197 -59q-187 0 -312 173q-117 162 -117 376q0 216 117 380q126 176 312 176q101 0 185 -50q78 -47 138 -134q59 93 142 146q90 57 196 57q148 0 246 -114
q76 -88 114 -232q27 -101 27 -183q0 -12 -2 -20h-614q0 -15 -0.5 -29.5t-0.5 -28.5q0 -86 20 -167q27 -110 82 -175q69 -82 175 -82q115 0 190 97q88 114 88 219zM1334 621q1 1 1 26q0 175 -56 281q-51 96 -140 96q-90 0 -144 -103q-39 -74 -54.5 -181t-10.5 -119h404z
M722 526q0 140 -10 217q-16 123 -60 187q-55 80 -156 80q-95 0 -149 -89q-44 -72 -61 -205q-12 -93 -12 -224q0 -136 10 -209q16 -119 60 -181q54 -76 154 -76q101 0 155 82q44 66 59 194q10 83 10 224z" />
    <glyph glyph-name="endash" unicode="&#x2013;" horiz-adv-x="899" 
d="M838 657h-784v139h784v-139z" />
    <glyph glyph-name="emdash" unicode="&#x2014;" horiz-adv-x="1661" 
d="M1603 657h-1536v139h1536v-139z" />
    <glyph glyph-name="quotedblleft" unicode="&#x201c;" horiz-adv-x="731" 
d="M674 1049q0 -62 -28 -104q-32 -48 -86 -48q-56 0 -95 59t-39 136q0 111 42 231q31 88 81 173q38 65 49 71l65 -32q-21 -31 -41 -69q-4 -8 -55 -119q-16 -33 -27.5 -74t-11.5 -76v-11q0 -1 1 -2q14 6 24.5 8.5t20.5 2.5q50 0 77 -50q23 -42 23 -96zM323 1049
q0 -60 -30 -104q-33 -48 -89 -48t-95 59t-39 136q0 111 42 231q31 88 81 173q38 65 49 71l65 -32q-32 -46 -62 -113t-34 -75q-16 -33 -27.5 -74t-11.5 -76v-11q0 -1 1 -2q17 6 25.5 8.5t19.5 2.5q51 0 80 -48q25 -42 25 -98z" />
    <glyph glyph-name="quotedblright" unicode="&#x201d;" horiz-adv-x="714" 
d="M656 1367q0 -111 -42 -231q-31 -88 -81 -173q-38 -65 -49 -71l-65 32q21 31 41 69q4 8 55 119q16 32 27.5 74t11.5 76v9q0 1 -1 4q-12 -6 -20 -9.5t-17 -3.5q-4 0 -12 2q-47 14 -70.5 54.5t-23.5 93.5q0 61 26 102q30 48 86 48t95 -59t39 -136zM301 1367q0 -111 -42 -231
q-30 -85 -82 -173q-39 -65 -49 -71l-65 32q21 31 41 69q4 8 55 119q16 32 27.5 74t11.5 76v9q0 1 -1 4q-12 -5 -25 -8.5t-24 -2.5q-47 0 -72.5 46t-25.5 102q0 60 28 102q32 48 88 48t95.5 -58.5t39.5 -136.5z" />
    <glyph glyph-name="quoteleft" unicode="&#x2018;" horiz-adv-x="381" 
d="M318 1042q0 -60 -27 -102q-31 -48 -87 -48t-95 59t-39 136q0 112 42 232q31 88 81 173q39 65 49 70l65 -31q-27 -39 -50.5 -89.5t-45.5 -98.5q-16 -33 -27.5 -74.5t-11.5 -76.5v-11q0 -1 1 -2q14 6 25.5 9.5t23.5 1.5q48 -4 74 -52q22 -40 22 -96z" />
    <glyph glyph-name="quoteright" unicode="&#x2019;" horiz-adv-x="372" 
d="M312 1367q0 -111 -42 -231q-30 -85 -82 -173q-39 -65 -49 -71l-65 32q32 47 54 90q17 35 43 98q23 59 33 117q3 19 5 46q-18 -7 -27 -9t-27 -2q-43 0 -67.5 46.5t-24.5 101.5q0 61 27 102q31 48 87 48t95.5 -58.5t39.5 -136.5z" />
    <glyph glyph-name="divide" unicode="&#xf7;" horiz-adv-x="1421" 
d="M693 740q-65 0 -104 43q-35 39 -35 94q0 57 34 95q38 43 105 43q65 0 103 -43q35 -39 35 -95t-34 -94q-38 -43 -104 -43zM1345 464h-1286l3 148h1279zM693 63q-65 0 -101.5 40.5t-36.5 95.5q0 56 34 94q39 43 104 43t103 -42q35 -39 35 -95q0 -55 -34 -93
q-39 -43 -104 -43z" />
    <glyph glyph-name="lozenge" unicode="&#x25ca;" horiz-adv-x="1029" 
d="M993 762l-394 -764h-133l-399 778l399 739h133zM874 762l-343 641l-342 -632l345 -679z" />
    <glyph glyph-name="ydieresis" unicode="&#xff;" horiz-adv-x="1114" 
d="M1037 994q-43 0 -60 -2t-33 -13.5t-36 -55.5q-15 -33 -30 -80l-329 -1011q-35 -109 -90 -168q-67 -72 -166 -72q-82 0 -138 70q-52 66 -52 154q0 50 32.5 94.5t79.5 44.5q46 0 74.5 -33.5t28.5 -85.5q0 -67 -35 -95q-24 -19 -62 -19q-22 2 -24 2q23 -37 29 -43
q23 -22 65 -22q87 0 151 104q82 133 82 230l-323 926q-8 23 -20 36q-15 13 -21 19q-9 9 -34 15q-8 2 -23 5h-45v72h455v-72h-52q-7 1 -14 1q-14 0 -26 -3.5t-23 -14.5t-11 -28q0 -10 5 -26t7 -24l217 -614l182 560q6 20 11.5 44t5.5 41q0 29 -13.5 43t-37 17.5t-65.5 3.5
h-20v72h358v-72zM772 1271q0 -39 -24.5 -68t-60.5 -29q-31 0 -51.5 27t-20.5 61q0 37 24.5 66.5t58.5 29.5q31 0 52.5 -26.5t21.5 -60.5zM514 1271q0 -39 -24.5 -68t-60.5 -29q-31 0 -51.5 27t-20.5 61q0 37 24.5 66.5t58.5 29.5q31 0 52.5 -26.5t21.5 -60.5z" />
    <glyph glyph-name="Ydieresis" unicode="&#x178;" horiz-adv-x="1254" 
d="M1209 1461h-34q-26 0 -49 -9.5t-47 -32.5t-54 -75q-9 -17 -25 -47l-289 -629v-440q0 -42 11 -75t32.5 -49t48.5 -22t52 -6h67v-76h-614v76h72q62 0 96 41q17 20 22 49t5 61v430l-265 623q-21 52 -42 89q-13 23 -28.5 44t-41.5 34.5t-56 13.5h-36v79h552v-79h-47
q-53 0 -80.5 -20t-27.5 -49q0 -22 5 -41q2 -7 24 -65l220 -513l243 536q7 15 11 36t4 33q0 11 -2 21.5t-4 14.5q-11 22 -28 32q-24 15 -70 15h-62v79h437v-79zM854 1763q0 -39 -24.5 -68t-60.5 -29q-31 0 -51.5 27t-20.5 61q0 37 24.5 66.5t58.5 29.5q31 0 52.5 -26.5
t21.5 -60.5zM596 1763q0 -39 -24.5 -68t-60.5 -29q-31 0 -51.5 27t-20.5 61q0 37 24.5 66.5t58.5 29.5q31 0 52.5 -26.5t21.5 -60.5z" />
    <glyph glyph-name="periodcentered" unicode="&#xb7;" horiz-adv-x="363" 
d="M296 765q0 -63 -24 -100q-30 -46 -92 -46q-57 0 -88 49q-27 43 -27 104q0 53 32 95t80 42q58 0 90 -45q29 -41 29 -99z" />
    <glyph glyph-name="periodcentered" unicode="&#x2219;" horiz-adv-x="363" 
d="M296 765q0 -63 -24 -100q-30 -46 -92 -46q-57 0 -88 49q-27 43 -27 104q0 53 32 95t80 42q58 0 90 -45q29 -41 29 -99z" />
    <glyph glyph-name="quotesinglbase" unicode="&#x201a;" horiz-adv-x="372" 
d="M312 98q0 -111 -42 -231q-30 -85 -82 -173q-39 -65 -49 -71l-65 32q32 47 54 90q17 35 43 98q23 59 33 117q3 19 5 46q-18 -7 -27 -9t-27 -2q-43 0 -67.5 46.5t-24.5 101.5q0 61 27 102q31 48 87 48t95.5 -58.5t39.5 -136.5z" />
    <glyph glyph-name="quotedblbase" unicode="&#x201e;" horiz-adv-x="714" 
d="M656 98q0 -111 -42 -231q-31 -88 -81 -173q-38 -65 -49 -71l-65 32q21 31 41 69q4 8 55 119q16 32 27.5 74t11.5 76v9q0 1 -1 4q-12 -6 -20 -9.5t-17 -3.5q-4 0 -12 2q-47 14 -70.5 54.5t-23.5 93.5q0 61 26 102q30 48 86 48t95 -59t39 -136zM301 98q0 -111 -42 -231
q-30 -85 -82 -173q-39 -65 -49 -71l-65 32q21 31 41 69q4 8 55 119q16 32 27.5 74t11.5 76v9q0 1 -1 4q-12 -5 -25 -8.5t-24 -2.5q-47 0 -72.5 46t-25.5 102q0 60 28 102q32 48 88 48t95.5 -58.5t39.5 -136.5z" />
    <glyph glyph-name="Acircumflex" unicode="&#xc2;" horiz-adv-x="1419" 
d="M1352 0h-564v76h40q40 0 63.5 9.5t39.5 28.5q21 28 21 76q0 17 -1 25.5t-7 24.5l-94 273h-448l-85 -283q-4 -11 -5 -21t-1 -21q0 -30 11 -51t25 -31q20 -14 42.5 -22t49.5 -8h71v-76h-478v76h27q30 0 60 17q23 13 46 37q16 16 33.5 45.5t28.5 63.5l422 1328h67l441 -1310
q21 -61 43 -97.5t56 -62.5q13 -9 32 -15t47 -6h17v-76zM819 601l-200 603l-190 -603h390zM961 1672h-136l-117 168l-125 -168h-155l215 264h126z" />
    <glyph glyph-name="Ecircumflex" unicode="&#xca;" horiz-adv-x="1166" 
d="M1110 603l-17 -603h-1054v76h50q32 0 54.5 8t39.5 29.5t22 49t5 68.5v1071q0 92 -19 123q-14 21 -33.5 28.5t-44.5 7.5h-78v79h1033l18 -576h-65q0 50 -19.5 129.5t-56.5 159.5q-51 107 -132 161q-71 47 -155 47h-103q-36 0 -64.5 -7.5t-45.5 -26.5t-24 -47.5t-7 -70.5
v-462h103q42 0 80 21q31 17 65 53q24 26 37 82t13 113h62v-611h-60q0 48 -32 131q-26 68 -62 95q-23 16 -48.5 26t-50.5 10h-103v-543q0 -44 7.5 -68t30.5 -47q17 -16 56 -26q13 -3 36 -7h76q99 0 174 40q67 36 135 115q59 67 89 171q25 85 25 168v21q-1 8 -1 12h64z
M893 1672h-136l-117 168l-125 -168h-155l215 264h126z" />
    <glyph glyph-name="Aacute" unicode="&#xc1;" horiz-adv-x="1408" 
d="M1352 0h-564v76h40q40 0 63.5 9.5t39.5 28.5q21 28 21 76q0 17 -1 25.5t-7 24.5l-94 273h-448l-85 -283q-4 -11 -5 -21t-1 -21q0 -30 11 -51t25 -31q20 -14 42.5 -22t49.5 -8h71v-76h-478v76h27q30 0 60 17q23 13 46 37q16 16 33.5 45.5t28.5 63.5l422 1328h67l441 -1310
q21 -61 43 -97.5t56 -62.5q13 -9 32 -15t47 -6h17v-76zM819 601l-200 603l-190 -603h390zM911 1946q0 -41 -35 -79q-27 -30 -77 -57l-245 -146l-45 52l173 201q38 45 71 69q43 30 84 30q28 0 48 -15q26 -20 26 -55z" />
    <glyph glyph-name="Edieresis" unicode="&#xcb;" horiz-adv-x="1155" 
d="M1110 603l-17 -603h-1054v76h50q32 0 54.5 8t39.5 29.5t22 49t5 68.5v1071q0 92 -19 123q-14 21 -33.5 28.5t-44.5 7.5h-78v79h1033l18 -576h-65q0 50 -19.5 129.5t-56.5 159.5q-51 107 -132 161q-71 47 -155 47h-103q-36 0 -64.5 -7.5t-45.5 -26.5t-24 -47.5t-7 -70.5
v-462h103q42 0 80 21q31 17 65 53q24 26 37 82t13 113h62v-611h-60q0 48 -32 131q-26 68 -62 95q-23 16 -48.5 26t-50.5 10h-103v-543q0 -44 7.5 -68t30.5 -47q17 -16 56 -26q13 -3 36 -7h76q99 0 174 40q67 36 135 115q59 67 89 171q25 85 25 168v21q-1 8 -1 12h64z
M837 1761q0 -39 -24.5 -68t-60.5 -29q-31 0 -51.5 27t-20.5 61q0 37 24.5 66.5t58.5 29.5q31 0 52.5 -26.5t21.5 -60.5zM579 1761q0 -39 -24.5 -68t-60.5 -29q-31 0 -51.5 27t-20.5 61q0 37 24.5 66.5t58.5 29.5q31 0 52.5 -26.5t21.5 -60.5z" />
    <glyph glyph-name="Egrave" unicode="&#xc8;" horiz-adv-x="1166" 
d="M1110 603l-17 -603h-1054v76h50q32 0 54.5 8t39.5 29.5t22 49t5 68.5v1071q0 92 -19 123q-14 21 -33.5 28.5t-44.5 7.5h-78v79h1033l18 -576h-65q0 50 -19.5 129.5t-56.5 159.5q-51 107 -132 161q-71 47 -155 47h-103q-36 0 -64.5 -7.5t-45.5 -26.5t-24 -47.5t-7 -70.5
v-462h103q42 0 80 21q31 17 65 53q24 26 37 82t13 113h62v-611h-60q0 48 -32 131q-26 68 -62 95q-23 16 -48.5 26t-50.5 10h-103v-543q0 -44 7.5 -68t30.5 -47q17 -16 56 -26q13 -3 36 -7h76q99 0 174 40q67 36 135 115q59 67 89 171q25 85 25 168v21q-1 8 -1 12h64z
M800 1716l-45 -52l-244 146q-49 27 -77 57q-35 38 -35 79q0 35 23 52.5t50 17.5q41 0 84 -30q35 -24 71 -69z" />
    <glyph glyph-name="Iacute" unicode="&#xcd;" horiz-adv-x="660" 
d="M610 0h-563v75h42q34 0 62 12.5t42 32.5q11 15 19 46.5t8 71.5v1064q0 47 -3.5 74t-16.5 45t-29 27q-22 13 -56 13h-68v79h563v-79h-54q-64 0 -101 -41q-17 -20 -24 -46t-7 -65v-1073q0 -86 34 -126q13 -16 40 -25.5t59 -9.5h53v-75zM537 1946q0 -41 -35 -79
q-27 -30 -77 -57l-245 -146l-45 52l173 201q38 45 71 69q43 30 84 30q28 0 48 -15q26 -20 26 -55z" />
    <glyph glyph-name="Icircumflex" unicode="&#xce;" horiz-adv-x="660" 
d="M610 0h-563v75h42q34 0 62 12.5t42 32.5q11 15 19 46.5t8 71.5v1064q0 47 -3.5 74t-16.5 45t-29 27q-22 13 -56 13h-68v79h563v-79h-54q-64 0 -101 -41q-17 -20 -24 -46t-7 -65v-1073q0 -86 34 -126q13 -16 40 -25.5t59 -9.5h53v-75zM587 1672h-136l-117 168l-125 -168
h-155l215 264h126z" />
    <glyph glyph-name="Idieresis" unicode="&#xcf;" horiz-adv-x="660" 
d="M610 0h-563v75h42q34 0 62 12.5t42 32.5q11 15 19 46.5t8 71.5v1064q0 47 -3.5 74t-16.5 45t-29 27q-22 13 -56 13h-68v79h563v-79h-54q-64 0 -101 -41q-17 -20 -24 -46t-7 -65v-1073q0 -86 34 -126q13 -16 40 -25.5t59 -9.5h53v-75zM531 1778q0 -39 -24.5 -68t-60.5 -29
q-31 0 -51.5 27t-20.5 61q0 37 24.5 66.5t58.5 29.5q31 0 52.5 -26.5t21.5 -60.5zM273 1778q0 -39 -24.5 -68t-60.5 -29q-31 0 -51.5 27t-20.5 61q0 37 24.5 66.5t58.5 29.5q31 0 52.5 -26.5t21.5 -60.5z" />
    <glyph glyph-name="Igrave" unicode="&#xcc;" horiz-adv-x="660" 
d="M610 0h-563v75h42q34 0 62 12.5t42 32.5q11 15 19 46.5t8 71.5v1064q0 47 -3.5 74t-16.5 45t-29 27q-22 13 -56 13h-68v79h563v-79h-54q-64 0 -101 -41q-17 -20 -24 -46t-7 -65v-1073q0 -86 34 -126q13 -16 40 -25.5t59 -9.5h53v-75zM511 1716l-45 -52l-244 146
q-49 27 -77 57q-35 38 -35 79q0 35 23 52.5t50 17.5q41 0 84 -30q35 -24 71 -69z" />
    <glyph glyph-name="Oacute" unicode="&#xd3;" horiz-adv-x="1254" 
d="M1199 794q0 -200 -65 -383q-69 -193 -191 -309q-134 -127 -306 -127q-176 0 -311 126q-122 113 -191 308q-65 182 -65 378q0 178 70.5 358t193.5 293q135 124 298 124q175 0 310 -117q124 -107 192 -287q65 -172 65 -364zM966 791q0 188 -19 316q-27 180 -91 274
q-79 116 -219 116q-139 0 -221 -118q-69 -99 -97 -278q-21 -133 -21 -323q0 -200 19 -330q27 -187 93 -286q80 -121 222 -121q140 0 220 123q67 102 94 291q20 138 20 336zM860 1946q0 -41 -35 -79q-27 -30 -77 -57l-245 -146l-45 52l173 201q38 45 71 69q43 30 84 30
q28 0 48 -15q26 -20 26 -55z" />
    <glyph glyph-name="Ocircumflex" unicode="&#xd4;" horiz-adv-x="1265" 
d="M1199 794q0 -200 -65 -383q-69 -193 -191 -309q-134 -127 -306 -127q-176 0 -311 126q-122 113 -191 308q-65 182 -65 378q0 178 70.5 358t193.5 293q135 124 298 124q175 0 310 -117q124 -107 192 -287q65 -172 65 -364zM966 791q0 188 -19 316q-27 180 -91 274
q-79 116 -219 116q-139 0 -221 -118q-69 -99 -97 -278q-21 -133 -21 -323q0 -200 19 -330q27 -187 93 -286q80 -121 222 -121q140 0 220 123q67 102 94 291q20 138 20 336zM927 1672h-136l-117 168l-125 -168h-155l215 264h126z" />
    <glyph glyph-name="Ograve" unicode="&#xd2;" horiz-adv-x="1265" 
d="M1199 794q0 -200 -65 -383q-69 -193 -191 -309q-134 -127 -306 -127q-176 0 -311 126q-122 113 -191 308q-65 182 -65 378q0 178 70.5 358t193.5 293q135 124 298 124q175 0 310 -117q124 -107 192 -287q65 -172 65 -364zM966 791q0 188 -19 316q-27 180 -91 274
q-79 116 -219 116q-139 0 -221 -118q-69 -99 -97 -278q-21 -133 -21 -323q0 -200 19 -330q27 -187 93 -286q80 -121 222 -121q140 0 220 123q67 102 94 291q20 138 20 336zM851 1716l-45 -52l-244 146q-49 27 -77 57q-35 38 -35 79q0 35 23 52.5t50 17.5q41 0 84 -30
q35 -24 71 -69z" />
    <glyph glyph-name="Uacute" unicode="&#xda;" horiz-adv-x="1320" 
d="M1281 1461h-30q-27 0 -48.5 -6.5t-38.5 -22.5q-27 -26 -38 -65t-11 -111v-825q0 -206 -96 -325q-113 -140 -348 -140q-210 0 -338 121q-124 117 -124 303v912q0 42 -4.5 68t-15.5 42q-16 24 -35 35q-23 14 -57 14h-63v79h556v-79h-62q-28 0 -46 -5.5t-36 -28.5
t-24.5 -52.5t-6.5 -76.5v-957q0 -133 70 -211q80 -89 235 -89q126 0 220 87t94 211v916q0 67 -9.5 103.5t-32.5 62.5q-18 20 -50.5 30t-70.5 10h-25v79h435v-79zM928 1946q0 -41 -35 -79q-27 -30 -77 -57l-245 -146l-45 52l173 201q38 45 71 69q43 30 84 30q28 0 48 -15
q26 -20 26 -55z" />
    <glyph glyph-name="Ucircumflex" unicode="&#xdb;" horiz-adv-x="1320" 
d="M1281 1461h-30q-27 0 -48.5 -6.5t-38.5 -22.5q-27 -26 -38 -65t-11 -111v-825q0 -206 -96 -325q-113 -140 -348 -140q-210 0 -338 121q-124 117 -124 303v912q0 42 -4.5 68t-15.5 42q-16 24 -35 35q-23 14 -57 14h-63v79h556v-79h-62q-28 0 -46 -5.5t-36 -28.5
t-24.5 -52.5t-6.5 -76.5v-957q0 -133 70 -211q80 -89 235 -89q126 0 220 87t94 211v916q0 67 -9.5 103.5t-32.5 62.5q-18 20 -50.5 30t-70.5 10h-25v79h435v-79zM961 1672h-136l-117 168l-125 -168h-155l215 264h126z" />
    <glyph glyph-name="Ugrave" unicode="&#xd9;" horiz-adv-x="1320" 
d="M1281 1461h-30q-27 0 -48.5 -6.5t-38.5 -22.5q-27 -26 -38 -65t-11 -111v-825q0 -206 -96 -325q-113 -140 -348 -140q-210 0 -338 121q-124 117 -124 303v912q0 42 -4.5 68t-15.5 42q-16 24 -35 35q-23 14 -57 14h-63v79h556v-79h-62q-28 0 -46 -5.5t-36 -28.5
t-24.5 -52.5t-6.5 -76.5v-957q0 -133 70 -211q80 -89 235 -89q126 0 220 87t94 211v916q0 67 -9.5 103.5t-32.5 62.5q-18 20 -50.5 30t-70.5 10h-25v79h435v-79zM936 1716l-45 -52l-244 146q-49 27 -77 57q-35 38 -35 79q0 35 23 52.5t50 17.5q41 0 84 -30q35 -24 71 -69z
" />
  </font>
</defs>
</svg>
